<?xml version="1.0" encoding="UTF-8"?>
<svg width="28px" height="28px" viewBox="0 0 28 28" version="1.1" xmlns="http://www.w3.org/2000/svg" xmlns:xlink="http://www.w3.org/1999/xlink">
    <title>Shape</title>
    <g id="Symbols" stroke="none" stroke-width="1" fill="none" fill-rule="evenodd">
        <g id="blog-post" transform="translate(-673.000000, -515.000000)" fill="#266DD4" fill-rule="nonzero">
            <g id="keep-reading">
                <g transform="translate(541.000000, 515.000000)">
                    <path d="M146,0 C138.268014,0 132,6.2680135 132,14 C132,21.7319865 138.268014,28 146,28 C153.731986,28 160,21.7319865 160,14 C159.99186,6.27138758 153.728612,0.0081396723 146,0 Z M146,26.5232068 C139.083624,26.5232068 133.476793,20.9163761 133.476793,14 C133.476793,7.08362389 139.083624,1.47679325 146,1.47679325 C152.916376,1.47679325 158.523207,7.08362389 158.523207,14 C158.515069,20.9130025 152.913003,26.515069 146,26.5232068 Z M152.517581,14 C152.519884,14.0097106 152.519884,14.0198253 152.517581,14.0295359 C152.517581,14.0295359 152.517581,14.0590717 152.517581,14.068917 C152.517581,14.0787623 152.517581,14.0984529 152.517581,14.1132208 L152.517581,14.1772152 C152.517581,14.1772152 152.517581,14.1772152 152.517581,14.2116737 L152.517581,14.2510549 C152.515639,14.2706976 152.515639,14.2904839 152.517581,14.3101266 L152.517581,14.3445851 L152.517581,14.3790436 L152.483122,14.4331927 L152.350211,14.4922644 L152.350211,14.4922644 L147.71308,19.9957806 C147.571718,20.1614888 147.364789,20.2568564 147.146976,20.2566807 C146.967103,20.2629131 146.791438,20.2014304 146.654712,20.0843882 C146.503645,19.9596599 146.408753,19.7796824 146.391183,19.5845682 C146.373614,19.3894541 146.434827,19.1954195 146.561181,19.0457103 L150.174402,14.7383966 L140.220816,14.7383966 C139.813011,14.7383966 139.482419,14.4078052 139.482419,14 C139.482419,13.5921948 139.813011,13.2616034 140.220816,13.2616034 L150.194093,13.2616034 L146.580872,8.95428973 C146.318517,8.64163908 146.35929,8.17550518 146.671941,7.91315051 C146.984592,7.65079584 147.450725,7.69156877 147.71308,8.00421941 L152.345288,13.5077356 L152.345288,13.5077356 L152.369902,13.5421941 L152.40436,13.5963432 L152.40436,13.6308017 L152.40436,13.6652602 C152.402419,13.6849029 152.402419,13.7046892 152.40436,13.7243319 L152.40436,13.7637131 C152.40436,13.7637131 152.40436,13.7883263 152.40436,13.7981716 L152.40436,13.862166 C152.40436,13.862166 152.40436,13.8917018 152.40436,13.9064698 C152.40436,13.9212377 152.40436,13.931083 152.40436,13.9458509 C152.422663,13.921447 152.455647,13.9133545 152.483166,13.926516 C152.510686,13.9396775 152.52509,13.9704337 152.517581,14 L152.517581,14 Z" id="Shape"></path>
                </g>
            </g>
        </g>
    </g>
</svg>