<?xml version="1.0" encoding="UTF-8"?>
<svg width="246px" height="33px" viewBox="0 0 246 33" version="1.1" xmlns="http://www.w3.org/2000/svg" xmlns:xlink="http://www.w3.org/1999/xlink">
    <!-- Generator: Sketch 63.1 (92452) - https://sketch.com -->
    <title>ember-sparks</title>
    <desc>Created with Sketch.</desc>
    <g id="Page-1" stroke="none" stroke-width="1" fill="none" fill-rule="evenodd">
        <g id="V2" transform="translate(-697.000000, -2304.000000)">
            <g id="freebies" transform="translate(64.000000, 2067.000000)">
                <g id="logos" transform="translate(0.000000, 203.000000)">
                    <g id="ember-sparks" transform="translate(611.000000, 0.000000)">
                        <g transform="translate(22.695040, 35.000000)">
                            <path d="M11.44368,7.37915799 L11.44368,9.42683799 L2.5272,9.42683799 L2.5272,15.595798 L9.74592,15.595798 L9.74592,17.565718 L2.5272,17.565718 L2.5272,23.903158 L11.44368,23.903158 L11.44368,25.950838 L2.13162821e-14,25.950838 L2.13162821e-14,7.37915799 L11.44368,7.37915799 Z M14.69664,25.950838 L14.69664,12.822358 L16.0704,12.822358 C16.3987216,12.822358 16.6060796,12.9821964 16.69248,13.301878 L16.86096,14.649718 C17.3448024,14.053555 17.886957,13.5653999 18.48744,13.185238 C19.087923,12.8050761 19.785596,12.614998 20.58048,12.614998 C21.4704044,12.614998 22.1896773,12.8612355 22.73832,13.353718 C23.2869627,13.8462005 23.6822388,14.5114738 23.92416,15.349558 C24.1056009,14.8743556 24.3453585,14.4639597 24.64344,14.118358 C24.9415215,13.7727563 25.2763181,13.4876391 25.64784,13.262998 C26.0193619,13.0383569 26.4146379,12.8741985 26.83368,12.770518 C27.2527221,12.6668375 27.6782378,12.614998 28.11024,12.614998 C28.8014435,12.614998 29.4170373,12.7251569 29.95704,12.945478 C30.4970427,13.1657991 30.9549581,13.4876359 31.3308,13.910998 C31.7066419,14.3343601 31.993919,14.8549149 32.19264,15.472678 C32.391361,16.0904411 32.49072,16.796754 32.49072,17.591638 L32.49072,25.950838 L30.18384,25.950838 L30.18384,17.591638 C30.18384,16.5634728 29.9592022,15.7837206 29.50992,15.252358 C29.0606378,14.7209953 28.4083243,14.455318 27.55296,14.455318 C27.1727981,14.455318 26.8120817,14.5222773 26.4708,14.656198 C26.1295183,14.7901187 25.8292813,14.9866767 25.57008,15.245878 C25.3108787,15.5050793 25.1056808,15.831236 24.95448,16.224358 C24.8032792,16.61748 24.72768,17.0732354 24.72768,17.591638 L24.72768,25.950838 L22.4208,25.950838 L22.4208,17.591638 C22.4208,16.5375527 22.2091221,15.7513206 21.78576,15.232918 C21.3623979,14.7145154 20.7446441,14.455318 19.93248,14.455318 C19.3622371,14.455318 18.8330424,14.6086765 18.34488,14.915398 C17.8567176,15.2221195 17.409602,15.6389954 17.00352,16.166038 L17.00352,25.950838 L14.69664,25.950838 Z M36.05472,25.950838 L36.05472,6.86075799 L38.37456,6.86075799 L38.37456,14.714518 C38.9188827,14.0837948 39.5431165,13.5761999 40.24728,13.191718 C40.9514435,12.8072361 41.7571155,12.614998 42.66432,12.614998 C43.4246438,12.614998 44.1115169,12.7575566 44.72496,13.042678 C45.3384031,13.3277994 45.8611178,13.7533152 46.29312,14.319238 C46.7251222,14.8851608 47.0577588,15.5849938 47.29104,16.418758 C47.5243212,17.2525222 47.64096,18.2137125 47.64096,19.302358 C47.64096,20.2700428 47.5113613,21.1707538 47.25216,22.004518 C46.9929587,22.8382822 46.6192824,23.5597149 46.13112,24.168838 C45.6429576,24.777961 45.0468035,25.2574762 44.34264,25.607398 C43.6384765,25.9573197 42.8457644,26.132278 41.96448,26.132278 C41.1177558,26.132278 40.398483,25.9681196 39.80664,25.639798 C39.214797,25.3114763 38.6985622,24.8535609 38.25792,24.266038 L38.14128,25.458358 C38.0721597,25.7866796 37.8734416,25.950838 37.54512,25.950838 L36.05472,25.950838 Z M41.91264,14.455318 C41.1609562,14.455318 40.5021628,14.6281163 39.93624,14.973718 C39.3703172,15.3193197 38.8497624,15.8074748 38.37456,16.438198 L38.37456,22.788598 C38.7892821,23.3588408 39.2493575,23.7605968 39.7548,23.993878 C40.2602425,24.2271592 40.8239969,24.343798 41.44608,24.343798 C42.6729661,24.343798 43.6147167,23.9074824 44.27136,23.034838 C44.9280033,22.1621936 45.25632,20.9180461 45.25632,19.302358 C45.25632,18.4469937 45.1807208,17.7126011 45.02952,17.099158 C44.8783192,16.4857149 44.6601614,15.98244 44.37504,15.589318 C44.0899186,15.196196 43.7400021,14.9089189 43.32528,14.727478 C42.9105579,14.5460371 42.4396826,14.455318 41.91264,14.455318 Z M55.6632,12.614998 C56.4494439,12.614998 57.1751967,12.7467567 57.84048,13.010278 C58.5057633,13.2737993 59.0803176,13.6539555 59.56416,14.150758 C60.0480024,14.6475605 60.4259986,15.2609943 60.69816,15.991078 C60.9703214,16.7211616 61.1064,17.5527533 61.1064,18.485878 C61.1064,18.8487598 61.0675204,19.0906774 60.98976,19.211638 C60.9119996,19.3325986 60.7651211,19.393078 60.54912,19.393078 L51.81408,19.393078 C51.8313601,20.2225221 51.943679,20.9439549 52.15104,21.557398 C52.358401,22.1708411 52.6435182,22.6827559 53.0064,23.093158 C53.3692818,23.50356 53.8012775,23.810277 54.3024,24.013318 C54.8035225,24.216359 55.3651169,24.317878 55.9872,24.317878 C56.5660829,24.317878 57.0650379,24.2509187 57.48408,24.116998 C57.9031221,23.9830773 58.2638385,23.8383588 58.56624,23.682838 C58.8686415,23.5273172 59.121359,23.3825987 59.3244,23.248678 C59.527441,23.1147573 59.7023993,23.047798 59.84928,23.047798 C60.039361,23.047798 60.1862395,23.1212373 60.28992,23.268118 L60.93792,24.110518 C60.6527986,24.4561197 60.311522,24.7563567 59.91408,25.011238 C59.516638,25.2661193 59.0911223,25.4756372 58.63752,25.639798 C58.1839177,25.8039588 57.7152024,25.9270776 57.23136,26.009158 C56.7475176,26.0912384 56.2680024,26.132278 55.7928,26.132278 C54.8855955,26.132278 54.0496838,25.9789195 53.28504,25.672198 C52.5203962,25.3654765 51.8594428,24.9162009 51.30216,24.324358 C50.7448772,23.732515 50.3107216,23.0002824 49.99968,22.127638 C49.6886384,21.2549936 49.53312,20.2527636 49.53312,19.120918 C49.53312,18.2050734 49.6735186,17.349722 49.95432,16.554838 C50.2351214,15.759954 50.6390374,15.0709209 51.16608,14.487718 C51.6931226,13.9045151 52.3367962,13.4465997 53.09712,13.113958 C53.8574438,12.7813163 54.7127952,12.614998 55.6632,12.614998 Z M55.71504,14.312758 C54.6004744,14.312758 53.7235232,14.6345948 53.08416,15.278278 C52.4447968,15.9219612 52.0473608,16.8140323 51.89184,17.954518 L59.0328,17.954518 C59.0328,17.4188353 58.9593607,16.9285202 58.81248,16.483558 C58.6655993,16.0385958 58.4496014,15.6541196 58.16448,15.330118 C57.8793586,15.0061164 57.5316021,14.7555589 57.1212,14.578438 C56.7107979,14.4013171 56.2420826,14.312758 55.71504,14.312758 Z M64.04832,25.950838 L64.04832,12.822358 L65.37024,12.822358 C65.6208013,12.822358 65.7935995,12.8698775 65.88864,12.964918 C65.9836805,13.0599585 66.0484798,13.2241168 66.08304,13.457398 L66.23856,15.505078 C66.6878422,14.5892334 67.2429567,13.8742806 67.90392,13.360198 C68.5648833,12.8461154 69.3403156,12.589078 70.23024,12.589078 C70.5931218,12.589078 70.9214385,12.6301176 71.2152,12.712198 C71.5089615,12.7942784 71.7811187,12.9087573 72.03168,13.055638 L71.7336,14.779318 C71.6731197,14.9953191 71.539201,15.103318 71.33184,15.103318 C71.2108794,15.103318 71.0251213,15.0622784 70.77456,14.980198 C70.5239987,14.8981176 70.1740822,14.857078 69.7248,14.857078 C68.921276,14.857078 68.2495227,15.0903557 67.70952,15.556918 C67.1695173,16.0234803 66.7180818,16.7017135 66.3552,17.591638 L66.3552,25.950838 L64.04832,25.950838 Z" id="ember" fill="#E6654D"></path>
                            <path d="M84.58896,27.456 C84.4449593,27.4319999 84.37296,27.3480007 84.37296,27.204 L84.37296,26.34 C84.37296,26.1239989 84.468959,26.0399998 84.66096,26.088 C85.4049637,26.2320007 86.3049547,26.3399996 87.36096,26.412 C88.4169653,26.4840004 89.4129553,26.52 90.34896,26.52 C91.6929667,26.52 92.8089556,26.418001 93.69696,26.214 C94.5849644,26.009999 95.2989573,25.710002 95.83896,25.314 C96.3789627,24.917998 96.7629589,24.4320029 96.99096,23.856 C97.2189611,23.2799971 97.33296,22.6080038 97.33296,21.84 C97.33296,20.5439935 97.0629627,19.5060039 96.52296,18.726 C95.9829573,17.9459961 95.0649665,17.256003 93.76896,16.656 L88.26096,14.1 C87.0369539,13.5479972 86.0709635,12.7980047 85.36296,11.85 C84.6549565,10.9019953 84.30096,9.67200756 84.30096,8.16 C84.30096,6.04798944 84.9249538,4.48800504 86.17296,3.48 C87.4209662,2.47199496 89.4249462,1.968 92.18496,1.968 C93.1449648,1.968 94.0989553,2.01599952 95.04696,2.112 C95.9949647,2.20800048 96.8289564,2.32799928 97.54896,2.472 C97.6929607,2.52000024 97.76496,2.6039994 97.76496,2.724 L97.76496,3.588 C97.76496,3.80400108 97.668961,3.88800024 97.47696,3.84 C96.8049566,3.7199994 96.0009647,3.6300003 95.06496,3.57 C94.1289553,3.5099997 93.2289643,3.48 92.36496,3.48 C90.0369484,3.48 88.3869649,3.8399964 87.41496,4.56 C86.4429551,5.2800036 85.95696,6.49199148 85.95696,8.196 C85.95696,9.2760054 86.2269573,10.1819963 86.76696,10.914 C87.3069627,11.6460037 88.2009538,12.2999971 89.44896,12.876 L95.02896,15.468 C96.3489666,16.0920031 97.3389567,16.9199948 97.99896,17.952 C98.6589633,18.9840052 98.98896,20.2919921 98.98896,21.876 C98.98896,23.9160102 98.3349665,25.4519948 97.02696,26.484 C95.7189535,27.5160052 93.5889748,28.032 90.63696,28.032 C89.5569546,28.032 88.4769654,27.9840005 87.39696,27.888 C86.3169546,27.7919995 85.380964,27.648001 84.58896,27.456 Z M105.21696,2.724 C106.104964,2.45999868 107.088955,2.2680006 108.16896,2.148 C109.248965,2.0279994 110.304955,1.968 111.33696,1.968 C114.384975,1.968 116.610953,2.58599382 118.01496,3.822 C119.418967,5.05800618 120.12096,6.89998776 120.12096,9.348 L120.12096,11.004 C120.12096,13.4520122 119.418967,15.2939938 118.01496,16.53 C116.610953,17.7660062 114.384975,18.384 111.33696,18.384 C110.472956,18.384 109.590964,18.3480004 108.69096,18.276 C107.790955,18.2039996 106.932964,18.0840008 106.11696,17.916 L106.11696,27.24 C106.11696,27.4800012 105.996961,27.6 105.75696,27.6 L104.82096,27.6 C104.580959,27.6 104.46096,27.4800012 104.46096,27.24 L104.46096,3.912 C104.46096,3.26399676 104.712957,2.86800072 105.21696,2.724 Z M118.50096,9.708 C118.50096,8.6279946 118.368961,7.6980039 118.10496,6.918 C117.840959,6.1379961 117.408963,5.49000258 116.80896,4.974 C116.208957,4.45799742 115.422965,4.0800012 114.45096,3.84 C113.478955,3.5999988 112.284967,3.48 110.86896,3.48 C110.100956,3.48 109.302964,3.52199958 108.47496,3.606 C107.646956,3.69000042 106.860964,3.82799904 106.11696,4.02 L106.11696,16.404 C106.812963,16.5720008 107.586956,16.6919996 108.43896,16.764 C109.290964,16.8360004 110.100956,16.872 110.86896,16.872 C112.284967,16.872 113.478955,16.7520012 114.45096,16.512 C115.422965,16.2719988 116.208957,15.8940026 116.80896,15.378 C117.408963,14.8619974 117.840959,14.2140039 118.10496,13.434 C118.368961,12.6539961 118.50096,11.7240054 118.50096,10.644 L118.50096,9.708 Z M133.15296,2.4 C133.440961,2.4 133.644959,2.54399856 133.76496,2.832 L141.90096,27.24 C141.97296,27.4800012 141.900961,27.6 141.68496,27.6 L140.64096,27.6 C140.424959,27.6 140.28096,27.504001 140.20896,27.312 L138.08496,20.976 L126.88896,20.976 L124.80096,27.312 C124.72896,27.504001 124.584961,27.6 124.36896,27.6 L123.32496,27.6 C123.108959,27.6 123.03696,27.4800012 123.10896,27.24 L131.24496,2.832 C131.34096,2.54399856 131.544958,2.4 131.85696,2.4 L133.15296,2.4 Z M127.39296,19.464 L137.58096,19.464 L132.50496,4.092 L127.39296,19.464 Z M147.44496,2.724 C148.236964,2.4839988 149.184954,2.29800066 150.28896,2.166 C151.392966,2.03399934 152.424955,1.968 153.38496,1.968 C156.432975,1.968 158.658953,2.58599382 160.06296,3.822 C161.466967,5.05800618 162.16896,6.89998776 162.16896,9.348 L162.16896,10.212 C162.16896,12.0360091 161.784964,13.5239942 161.01696,14.676 C160.248956,15.8280058 159.048968,16.6439976 157.41696,17.124 L162.99696,27.276 C163.04496,27.3480004 163.05696,27.4199996 163.03296,27.492 C163.00896,27.5640004 162.936961,27.6 162.81696,27.6 L161.77296,27.6 C161.460958,27.6 161.25696,27.4920011 161.16096,27.276 L155.76096,17.448 C155.424958,17.4960002 155.058962,17.5319999 154.66296,17.556 C154.266958,17.5800001 153.864962,17.592 153.45696,17.592 C152.616956,17.592 151.758964,17.5620003 150.88296,17.502 C150.006956,17.4419997 149.160964,17.3400007 148.34496,17.196 L148.34496,27.24 C148.34496,27.4800012 148.224961,27.6 147.98496,27.6 L147.04896,27.6 C146.808959,27.6 146.68896,27.4800012 146.68896,27.24 L146.68896,3.912 C146.68896,3.26399676 146.940957,2.86800072 147.44496,2.724 Z M160.54896,9.708 C160.54896,8.6279946 160.416961,7.6980039 160.15296,6.918 C159.888959,6.1379961 159.456963,5.49000258 158.85696,4.974 C158.256957,4.45799742 157.476965,4.0800012 156.51696,3.84 C155.556955,3.5999988 154.380967,3.48 152.98896,3.48 C152.244956,3.48 151.458964,3.52799952 150.63096,3.624 C149.802956,3.72000048 149.040963,3.85199916 148.34496,4.02 L148.34496,15.72 C149.040963,15.8400006 149.802956,15.9299997 150.63096,15.99 C151.458964,16.0500003 152.244956,16.08 152.98896,16.08 C154.380967,16.08 155.556955,15.9600012 156.51696,15.72 C157.476965,15.4799988 158.256957,15.1020026 158.85696,14.586 C159.456963,14.0699974 159.888959,13.4220039 160.15296,12.642 C160.416961,11.8619961 160.54896,10.9320054 160.54896,9.852 L160.54896,9.708 Z M170.19696,27.24 C170.19696,27.4800012 170.076961,27.6 169.83696,27.6 L168.90096,27.6 C168.660959,27.6 168.54096,27.4800012 168.54096,27.24 L168.54096,2.76 C168.54096,2.5199988 168.660959,2.4 168.90096,2.4 L169.83696,2.4 C170.076961,2.4 170.19696,2.5199988 170.19696,2.76 L170.19696,14.244 L181.93296,2.688 C182.172961,2.49599904 182.436959,2.4 182.72496,2.4 L183.91296,2.4 C184.032961,2.4 184.11096,2.43599964 184.14696,2.508 C184.18296,2.58000036 184.15296,2.66399952 184.05696,2.76 L172.14096,14.496 L185.17296,27.24 C185.26896,27.3360005 185.29896,27.4199996 185.26296,27.492 C185.22696,27.5640004 185.148961,27.6 185.02896,27.6 L183.80496,27.6 C183.516959,27.6 183.252961,27.504001 183.01296,27.312 L170.19696,14.748 L170.19696,27.24 Z M188.34096,27.456 C188.196959,27.4319999 188.12496,27.3480007 188.12496,27.204 L188.12496,26.34 C188.12496,26.1239989 188.220959,26.0399998 188.41296,26.088 C189.156964,26.2320007 190.056955,26.3399996 191.11296,26.412 C192.168965,26.4840004 193.164955,26.52 194.10096,26.52 C195.444967,26.52 196.560956,26.418001 197.44896,26.214 C198.336964,26.009999 199.050957,25.710002 199.59096,25.314 C200.130963,24.917998 200.514959,24.4320029 200.74296,23.856 C200.970961,23.2799971 201.08496,22.6080038 201.08496,21.84 C201.08496,20.5439935 200.814963,19.5060039 200.27496,18.726 C199.734957,17.9459961 198.816966,17.256003 197.52096,16.656 L192.01296,14.1 C190.788954,13.5479972 189.822964,12.7980047 189.11496,11.85 C188.406956,10.9019953 188.05296,9.67200756 188.05296,8.16 C188.05296,6.04798944 188.676954,4.48800504 189.92496,3.48 C191.172966,2.47199496 193.176946,1.968 195.93696,1.968 C196.896965,1.968 197.850955,2.01599952 198.79896,2.112 C199.746965,2.20800048 200.580956,2.32799928 201.30096,2.472 C201.444961,2.52000024 201.51696,2.6039994 201.51696,2.724 L201.51696,3.588 C201.51696,3.80400108 201.420961,3.88800024 201.22896,3.84 C200.556957,3.7199994 199.752965,3.6300003 198.81696,3.57 C197.880955,3.5099997 196.980964,3.48 196.11696,3.48 C193.788948,3.48 192.138965,3.8399964 191.16696,4.56 C190.194955,5.2800036 189.70896,6.49199148 189.70896,8.196 C189.70896,9.2760054 189.978957,10.1819963 190.51896,10.914 C191.058963,11.6460037 191.952954,12.2999971 193.20096,12.876 L198.78096,15.468 C200.100967,16.0920031 201.090957,16.9199948 201.75096,17.952 C202.410963,18.9840052 202.74096,20.2919921 202.74096,21.876 C202.74096,23.9160102 202.086967,25.4519948 200.77896,26.484 C199.470953,27.5160052 197.340975,28.032 194.38896,28.032 C193.308955,28.032 192.228965,27.9840005 191.14896,27.888 C190.068955,27.7919995 189.132964,27.648001 188.34096,27.456 Z" id="sparks" fill="#E6654D"></path>
                            <g id="logomark" transform="translate(215.104960, 0.000000)" stroke-linecap="round" stroke-linejoin="round" stroke-width="1.8">
                                <polygon id="star-2" stroke-opacity="0.675639719" stroke="#E6864D" points="10.1964064 21.6145255 0.430227332 20.364664 7.35928705 13.34595 5.52589418 3.63886219 14.3188875 8.08306764 22.9519675 3.33361902 21.4572765 13.0990031 28.6262062 19.8707701 18.9094431 21.4619039 14.7070053 30.3965348"></polygon>
                                <polygon id="star-1" stroke="#E6654D" points="14.2736705 22.7846416 5.55930657 27.3821689 7.22360198 17.6444499 0.173533501 10.748159 9.91648851 9.32744495 14.2736705 0.467775521 18.6308524 9.32744495 28.3738074 10.748159 21.3237389 17.6444499 22.9880343 27.3821689"></polygon>
                            </g>
                        </g>
                    </g>
                </g>
            </g>
        </g>
    </g>
</svg>