<?xml version="1.0" encoding="UTF-8"?>
<svg width="162px" height="56px" viewBox="0 0 162 56" version="1.1" xmlns="http://www.w3.org/2000/svg" xmlns:xlink="http://www.w3.org/1999/xlink">
    <!-- Generator: Sketch 63.1 (92452) - https://sketch.com -->
    <title>ether</title>
    <desc>Created with Sketch.</desc>
    <defs>
        <linearGradient x1="50%" y1="0%" x2="50%" y2="100%" id="linearGradient-1">
            <stop stop-color="#7B39F4" offset="0%"></stop>
            <stop stop-color="#BC61E0" offset="100%"></stop>
        </linearGradient>
        <linearGradient x1="50%" y1="0%" x2="50%" y2="100%" id="linearGradient-2">
            <stop stop-color="#7B39F4" offset="0%"></stop>
            <stop stop-color="#BC61E0" offset="100%"></stop>
        </linearGradient>
        <linearGradient x1="50%" y1="0%" x2="50%" y2="100%" id="linearGradient-3">
            <stop stop-color="#7B39F4" offset="0%"></stop>
            <stop stop-color="#BC61E0" offset="100%"></stop>
        </linearGradient>
        <linearGradient x1="50%" y1="0%" x2="50%" y2="100%" id="linearGradient-4">
            <stop stop-color="#7B39F4" offset="0%"></stop>
            <stop stop-color="#BC61E0" offset="100%"></stop>
        </linearGradient>
        <linearGradient x1="50%" y1="0%" x2="50%" y2="100%" id="linearGradient-5">
            <stop stop-color="#7B39F4" offset="0%"></stop>
            <stop stop-color="#BC61E0" offset="100%"></stop>
        </linearGradient>
        <linearGradient x1="50%" y1="0%" x2="50%" y2="100%" id="linearGradient-6">
            <stop stop-color="#7B39F4" offset="0%"></stop>
            <stop stop-color="#BC61E0" offset="100%"></stop>
        </linearGradient>
    </defs>
    <g id="Page-1" stroke="none" stroke-width="1" fill="none" fill-rule="evenodd">
        <g id="V2" transform="translate(-435.000000, -2293.000000)">
            <g id="freebies" transform="translate(64.000000, 2067.000000)">
                <g id="logos" transform="translate(0.000000, 203.000000)">
                    <g id="ether.se" transform="translate(305.000000, 0.000000)">
                        <g id="ether" transform="translate(67.000000, 24.000000)">
                            <g id="logomark" stroke-linecap="round" stroke-linejoin="round" stroke-width="1.5552">
                                <polygon id="Path-69" stroke="url(#linearGradient-2)" points="16.797827 36.8818605 0 26.9157455 16.797827 0 33.6 26.9157455"></polygon>
                                <line x1="16.8" y1="36.8818605" x2="16.8" y2="0.312558139" id="Path-229" stroke="url(#linearGradient-3)"></line>
                                <line x1="16.8" y1="41.2576744" x2="16.8" y2="53.1348837" id="Path-231" stroke="url(#linearGradient-4)"></line>
                                <polyline id="Path-228" stroke="url(#linearGradient-5)" points="0.314018692 26.88 16.9114479 19.3786046 33.6 26.88"></polyline>
                                <polygon id="Path-230" stroke="url(#linearGradient-6)" points="0 31.2558139 16.6621999 53.76 33.2859813 31.2558139 16.6429907 41.0316485"></polygon>
                            </g>
                            <path d="M61.344,20.5824 C62.7033668,20.5824 63.8092758,20.9452764 64.66176,21.67104 C65.5142442,22.3968036 65.94048,23.3356742 65.94048,24.48768 C65.94048,25.6396858 65.6006434,26.5843164 64.92096,27.3216 C64.2412766,28.0588836 63.3830452,28.6463978 62.34624,29.08416 C61.3094348,29.5219222 60.1689662,29.8444789 58.9248,30.05184 C57.6806338,30.2592011 56.4825658,30.3974396 55.33056,30.46656 C55.2614396,30.8812821 55.22688,31.3075178 55.22688,31.74528 C55.22688,32.8281654 55.4803175,33.7267164 55.9872,34.44096 C56.4940825,35.1552036 57.3926336,35.51232 58.68288,35.51232 C59.489284,35.51232 60.295676,35.3913612 61.10208,35.14944 C61.908484,34.9075188 62.6572765,34.5907219 63.34848,34.19904 L63.936,36.34176 C63.129596,36.8025623 62.2598447,37.1711987 61.32672,37.44768 C60.3935953,37.7241613 59.4086452,37.8624 58.37184,37.8624 C57.3580749,37.8624 56.4710438,37.7011216 55.71072,37.37856 C54.9503962,37.0559984 54.3225625,36.6067229 53.8272,36.03072 C53.3318375,35.4547171 52.9574412,34.7808038 52.704,34.00896 C52.4505588,33.2371162 52.32384,32.4019245 52.32384,31.50336 C52.32384,30.1209531 52.5311979,28.7731265 52.94592,27.45984 C53.3606421,26.1465535 53.9596761,24.9772851 54.74304,23.952 C55.5264039,22.9267149 56.4767944,22.1088031 57.59424,21.49824 C58.7116856,20.8876769 59.9615931,20.5824 61.344,20.5824 Z M60.96384,22.86336 C60.2726365,22.86336 59.6390429,23.0188785 59.06304,23.32992 C58.4870371,23.6409615 57.9744022,24.0441575 57.52512,24.53952 C57.0758378,25.0348825 56.7014415,25.5993568 56.40192,26.23296 C56.1023985,26.8665632 55.8835207,27.4943969 55.74528,28.11648 C56.551684,28.0934399 57.3868757,28.0185607 58.25088,27.89184 C59.1148843,27.7651193 59.9039964,27.5692813 60.61824,27.30432 C61.3324836,27.0393587 61.9199977,26.6937621 62.3808,26.26752 C62.8416023,25.8412779 63.072,25.3056033 63.072,24.66048 C63.072,24.1305573 62.8819219,23.6985616 62.50176,23.36448 C62.1215981,23.0303984 61.6089633,22.86336 60.96384,22.86336 Z M68.61888,20.928 L71.66016,20.928 L72.42048,16.57344 L75.46176,16.57344 L74.70144,20.928 L80.05824,20.928 L79.60896,23.38176 L74.25216,23.38176 L72.6624,32.40192 C72.5932797,32.8166421 72.55872,33.1622387 72.55872,33.43872 C72.55872,34.1068834 72.7084786,34.6079984 73.008,34.94208 C73.3075215,35.2761616 73.8028765,35.4432 74.49408,35.4432 C75.0700829,35.4432 75.6403172,35.3798407 76.2048,35.25312 C76.7692829,35.1263993 77.3049575,34.9593611 77.81184,34.752 L78.0192,36.96384 C77.5123175,37.2172812 76.8960036,37.4303991 76.17024,37.6032 C75.4444764,37.7760009 74.7129637,37.8624 73.97568,37.8624 C72.5241528,37.8624 71.4182438,37.4880037 70.65792,36.7392 C69.8975963,35.9903963 69.51744,34.9478467 69.51744,33.61152 C69.51744,33.3580788 69.5289599,33.1104012 69.552,32.86848 C69.5750401,32.6265588 69.6095998,32.4019211 69.65568,32.19456 L71.21088,23.38176 L68.1696,23.38176 L68.61888,20.928 Z M81.18144,37.5168 L85.46688,13.11744 L88.50816,13.11744 L86.46912,24.79872 C86.7916816,24.2457572 87.1430381,23.7158425 87.5232,23.20896 C87.9033619,22.7020775 88.3353576,22.2528019 88.8192,21.86112 C89.3030424,21.4694381 89.8387171,21.1584012 90.42624,20.928 C91.013763,20.6975988 91.6646364,20.5824 92.37888,20.5824 C93.0931236,20.5824 93.7209573,20.7263986 94.2624,21.0144 C94.8038427,21.3024014 95.2588782,21.7055974 95.62752,22.224 C95.9961618,22.7424026 96.272639,23.3529564 96.45696,24.05568 C96.641281,24.7584036 96.73344,25.5359958 96.73344,26.38848 C96.73344,26.7340817 96.71616,27.108478 96.6816,27.51168 C96.64704,27.914882 96.5952,28.3123181 96.52608,28.704 L94.97088,37.5168 L91.9296,37.5168 L93.45024,28.91136 C93.5884807,28.1279961 93.6576,27.3561638 93.6576,26.59584 C93.6576,25.5820749 93.4905617,24.7353634 93.15648,24.05568 C92.8223984,23.3759966 92.2406441,23.03616 91.4112,23.03616 C90.8582372,23.03616 90.3225626,23.1859185 89.80416,23.48544 C89.2857574,23.7849615 88.7904024,24.1881575 88.31808,24.69504 C87.8457577,25.2019225 87.4022421,25.7894366 86.98752,26.4576 C86.572798,27.1257634 86.1811218,27.8169564 85.81248,28.5312 L84.22272,37.5168 L81.18144,37.5168 Z M109.39968,20.5824 C110.759047,20.5824 111.864956,20.9452764 112.71744,21.67104 C113.569924,22.3968036 113.99616,23.3356742 113.99616,24.48768 C113.99616,25.6396858 113.656324,26.5843164 112.97664,27.3216 C112.296956,28.0588836 111.438725,28.6463978 110.40192,29.08416 C109.365115,29.5219222 108.224647,29.8444789 106.98048,30.05184 C105.736314,30.2592011 104.538246,30.3974396 103.38624,30.46656 C103.31712,30.8812821 103.28256,31.3075178 103.28256,31.74528 C103.28256,32.8281654 103.535997,33.7267164 104.04288,34.44096 C104.549763,35.1552036 105.448313,35.51232 106.73856,35.51232 C107.544964,35.51232 108.351356,35.3913612 109.15776,35.14944 C109.964164,34.9075188 110.712956,34.5907219 111.40416,34.19904 L111.99168,36.34176 C111.185276,36.8025623 110.315525,37.1711987 109.3824,37.44768 C108.449275,37.7241613 107.464325,37.8624 106.42752,37.8624 C105.413755,37.8624 104.526724,37.7011216 103.7664,37.37856 C103.006076,37.0559984 102.378243,36.6067229 101.88288,36.03072 C101.387517,35.4547171 101.013121,34.7808038 100.75968,34.00896 C100.506239,33.2371162 100.37952,32.4019245 100.37952,31.50336 C100.37952,30.1209531 100.586878,28.7731265 101.0016,27.45984 C101.416322,26.1465535 102.015356,24.9772851 102.79872,23.952 C103.582084,22.9267149 104.532474,22.1088031 105.64992,21.49824 C106.767366,20.8876769 108.017273,20.5824 109.39968,20.5824 Z M109.01952,22.86336 C108.328316,22.86336 107.694723,23.0188785 107.11872,23.32992 C106.542717,23.6409615 106.030082,24.0441575 105.5808,24.53952 C105.131518,25.0348825 104.757122,25.5993568 104.4576,26.23296 C104.158078,26.8665632 103.939201,27.4943969 103.80096,28.11648 C104.607364,28.0934399 105.442556,28.0185607 106.30656,27.89184 C107.170565,27.7651193 107.959676,27.5692813 108.67392,27.30432 C109.388164,27.0393587 109.975678,26.6937621 110.43648,26.26752 C110.897282,25.8412779 111.12768,25.3056033 111.12768,24.66048 C111.12768,24.1305573 110.937602,23.6985616 110.55744,23.36448 C110.177278,23.0303984 109.664643,22.86336 109.01952,22.86336 Z M126.93888,23.58912 C126.84672,23.5660799 126.743041,23.55456 126.62784,23.55456 L126.3168,23.55456 C125.095674,23.55456 124.007045,23.957756 123.05088,24.76416 C122.094715,25.570564 121.271044,26.6879929 120.57984,28.11648 L118.92096,37.5168 L115.87968,37.5168 L118.81728,20.928 L121.78944,20.928 L121.02912,25.248 C121.559043,23.7964727 122.250236,22.6963237 123.10272,21.94752 C123.955204,21.1987163 124.980474,20.82432 126.17856,20.82432 C126.362881,20.82432 126.558719,20.8300799 126.76608,20.8416 C126.973441,20.8531201 127.134719,20.8819198 127.24992,20.928 L126.93888,23.58912 Z M127.640448,36.148224 C127.640448,35.546877 127.82707,35.0647698 128.20032,34.701888 C128.57357,34.3390062 129.060861,34.157568 129.662208,34.157568 C130.139139,34.157568 130.522751,34.3079025 130.813056,34.608576 C131.103362,34.9092495 131.248512,35.2773098 131.248512,35.712768 C131.248512,36.2519067 131.067074,36.723646 130.704192,37.128 C130.34131,37.532354 129.838467,37.734528 129.195648,37.734528 C128.718718,37.734528 128.34029,37.5790095 128.060352,37.267968 C127.780415,36.9569265 127.640448,36.5836822 127.640448,36.148224 Z M145.348992,33.286656 C145.348992,33.9916836 145.198658,34.6241252 144.897984,35.184 C144.59731,35.7438748 144.192963,36.220798 143.684928,36.614784 C143.176893,37.00877 142.575556,37.3094389 141.880896,37.5168 C141.186236,37.7241611 140.4553,37.82784 139.688064,37.82784 C138.920828,37.82784 138.117316,37.7397129 137.277504,37.563456 C136.437692,37.3871991 135.717123,37.1642893 135.115776,36.89472 L135.706752,34.779648 C136.308099,35.0699534 136.950909,35.2980471 137.6352,35.463936 C138.319492,35.6298249 138.993405,35.712768 139.65696,35.712768 C140.050946,35.712768 140.429374,35.6764804 140.792256,35.603904 C141.155138,35.5313276 141.471359,35.4069129 141.740928,35.230656 C142.010497,35.0543991 142.228223,34.8366732 142.394112,34.577472 C142.560001,34.3182707 142.642944,34.0020498 142.642944,33.6288 C142.642944,33.0481891 142.41485,32.5453461 141.958656,32.120256 C141.502462,31.6951659 140.911492,31.2752661 140.185728,30.860544 C139.75027,30.5909747 139.320002,30.3058575 138.894912,30.005184 C138.469822,29.7045105 138.091394,29.3727378 137.759616,29.009856 C137.427838,28.6469742 137.158273,28.2478102 136.950912,27.812352 C136.743551,27.3768938 136.639872,26.9103385 136.639872,26.412672 C136.639872,25.0648253 137.111611,24.0384036 138.055104,23.333376 C138.998597,22.6283484 140.258296,22.27584 141.83424,22.27584 C142.622212,22.27584 143.363516,22.369151 144.058176,22.555776 C144.752836,22.742401 145.400829,22.9912305 146.002176,23.302272 L145.442304,25.355136 C144.218874,24.7123168 143.00583,24.390912 141.803136,24.390912 C141.077372,24.390912 140.491586,24.5153268 140.04576,24.76416 C139.599934,25.0129932 139.377024,25.4691806 139.377024,26.132736 C139.377024,26.6511386 139.574014,27.0917742 139.968,27.454656 C140.361986,27.8175378 140.890749,28.2063339 141.554304,28.621056 C141.94829,28.8698892 142.36819,29.1446385 142.814016,29.445312 C143.259842,29.7459855 143.669374,30.0829422 144.042624,30.456192 C144.415874,30.8294418 144.726911,31.2493417 144.975744,31.715904 C145.224577,32.1824663 145.348992,32.7060451 145.348992,33.286656 Z M156.370176,22.27584 C157.593606,22.27584 158.588924,22.6024287 159.35616,23.255616 C160.123396,23.9088033 160.507008,24.7537868 160.507008,25.790592 C160.507008,26.8273972 160.201155,27.6775646 159.58944,28.34112 C158.977725,29.0046754 158.205317,29.533438 157.272192,29.927424 C156.339067,30.32141 155.312646,30.611711 154.192896,30.798336 C153.073146,30.984961 151.994885,31.1093757 150.95808,31.171584 C150.895872,31.5448338 150.864768,31.928446 150.864768,32.322432 C150.864768,33.2970289 151.092862,34.1057248 151.549056,34.748544 C152.00525,35.3913632 152.813946,35.712768 153.975168,35.712768 C154.700932,35.712768 155.426684,35.6039051 156.152448,35.386176 C156.878212,35.1684469 157.552125,34.8833297 158.174208,34.530816 L158.702976,36.459264 C157.977212,36.8739861 157.194436,37.2057588 156.354624,37.454592 C155.514812,37.7034252 154.628357,37.82784 153.695232,37.82784 C152.782843,37.82784 151.984516,37.6826894 151.300224,37.392384 C150.615933,37.1020786 150.050882,36.6977306 149.605056,36.179328 C149.15923,35.6609254 148.822273,35.0544035 148.594176,34.359744 C148.366079,33.6650845 148.252032,32.913412 148.252032,32.104704 C148.252032,30.8605378 148.438654,29.647494 148.811904,28.465536 C149.185154,27.283578 149.724284,26.2312366 150.429312,25.30848 C151.13434,24.3857234 151.989691,23.6496028 152.995392,23.100096 C154.001093,22.5505892 155.12601,22.27584 156.370176,22.27584 Z M156.028032,24.328704 C155.405949,24.328704 154.835715,24.4686706 154.317312,24.748608 C153.798909,25.0285454 153.337538,25.3914218 152.933184,25.837248 C152.52883,26.2830742 152.191873,26.7911011 151.922304,27.361344 C151.652735,27.9315869 151.455745,28.4966372 151.331328,29.056512 C152.057092,29.0357759 152.808764,28.9683846 153.586368,28.854336 C154.363972,28.7402874 155.074173,28.5640332 155.716992,28.325568 C156.359811,28.0871028 156.888574,27.7760659 157.303296,27.392448 C157.718018,27.0088301 157.925376,26.5267229 157.925376,25.946112 C157.925376,25.4691816 157.754306,25.0803855 157.41216,24.779712 C157.070014,24.4790385 156.608643,24.328704 156.028032,24.328704 Z" id="ether.se" fill="#903CF2" fill-rule="nonzero"></path>
                        </g>
                    </g>
                </g>
            </g>
        </g>
    </g>
</svg>