<?xml version="1.0" encoding="UTF-8"?>
<svg width="23px" height="20px" viewBox="0 0 23 20" version="1.1" xmlns="http://www.w3.org/2000/svg" xmlns:xlink="http://www.w3.org/1999/xlink">
    <!-- Generator: Sketch 63.1 (92452) - https://sketch.com -->
    <title>heart-icon</title>
    <desc>Created with Sketch.</desc>
    <g id="Page-1" stroke="none" stroke-width="1" fill="none" fill-rule="evenodd">
        <g id="V2" transform="translate(-501.000000, -2067.000000)" fill="#F38270" fill-rule="nonzero">
            <g id="freebies" transform="translate(64.000000, 2067.000000)">
                <path d="M443.5,0 L445.5,0 L445.5,2 L443.5,2 L443.5,0 L443.5,0 Z M441.5,0 L443.5,0 L443.5,2 L441.5,2 L441.5,0 L441.5,0 Z M445.5,2 L447.5,2 L447.5,4 L445.5,4 L445.5,2 L445.5,2 Z M443.5,2 L445.5,2 L445.5,4 L443.5,4 L443.5,2 L443.5,2 Z M441.5,2 L443.5,2 L443.5,4 L441.5,4 L441.5,2 L441.5,2 Z M445.5,4 L447.5,4 L447.5,6 L445.5,6 L445.5,4 L445.5,4 Z M443.5,4 L445.5,4 L445.5,6 L443.5,6 L443.5,4 L443.5,4 Z M441.5,4 L443.5,4 L443.5,6 L441.5,6 L441.5,4 L441.5,4 Z M443.5,6 L445.5,6 L445.5,8 L443.5,8 L443.5,6 L443.5,6 Z M441.5,6 L443.5,6 L443.5,8 L441.5,8 L441.5,6 L441.5,6 Z M439.5,6 L441.5,6 L441.5,8 L439.5,8 L439.5,6 L439.5,6 Z M443.5,8 L445.5,8 L445.5,10 L443.5,10 L443.5,8 L443.5,8 Z M441.5,8 L443.5,8 L443.5,10 L441.5,10 L441.5,8 L441.5,8 Z M439.5,8 L441.5,8 L441.5,10 L439.5,10 L439.5,8 L439.5,8 Z M445.5,10 L447.5,10 L447.5,12 L445.5,12 L445.5,10 L445.5,10 Z M443.5,10 L445.5,10 L445.5,12 L443.5,12 L443.5,10 L443.5,10 Z M441.5,10 L443.5,10 L443.5,12 L441.5,12 L441.5,10 L441.5,10 Z M447.5,12 L449.5,12 L449.5,14 L447.5,14 L447.5,12 L447.5,12 Z M447.5,10 L449.5,10 L449.5,12 L447.5,12 L447.5,10 L447.5,10 Z M445.5,12 L447.5,12 L447.5,14 L445.5,14 L445.5,12 L445.5,12 Z M443.5,12 L445.5,12 L445.5,14 L443.5,14 L443.5,12 L443.5,12 Z M449.5,14 L451.5,14 L451.5,16 L449.5,16 L449.5,14 L449.5,14 Z M447.5,14 L449.5,14 L449.5,16 L447.5,16 L447.5,14 L447.5,14 Z M447.5,16 L449.5,16 L449.5,18 L447.5,18 L447.5,16 L447.5,16 Z M445.5,14 L447.5,14 L447.5,16 L445.5,16 L445.5,14 L445.5,14 Z M453.5,10 L455.5,10 L455.5,12 L453.5,12 L453.5,10 L453.5,10 Z M451.5,10 L453.5,10 L453.5,12 L451.5,12 L451.5,10 L451.5,10 Z M449.5,10 L451.5,10 L451.5,12 L449.5,12 L449.5,10 L449.5,10 Z M451.5,12 L453.5,12 L453.5,14 L451.5,14 L451.5,12 L451.5,12 Z M449.5,12 L451.5,12 L451.5,14 L449.5,14 L449.5,12 L449.5,12 Z M455.5,8 L457.5,8 L457.5,10 L455.5,10 L455.5,8 L455.5,8 Z M453.5,8 L455.5,8 L455.5,10 L453.5,10 L453.5,8 L453.5,8 Z M451.5,8 L453.5,8 L453.5,10 L451.5,10 L451.5,8 L451.5,8 Z M455.5,6 L457.5,6 L457.5,8 L455.5,8 L455.5,6 L455.5,6 Z M453.5,6 L455.5,6 L455.5,8 L453.5,8 L453.5,6 L453.5,6 Z M451.5,6 L453.5,6 L453.5,8 L451.5,8 L451.5,6 L451.5,6 Z M455.5,4 L457.5,4 L457.5,6 L455.5,6 L455.5,4 L455.5,4 Z M453.5,4 L455.5,4 L455.5,6 L453.5,6 L453.5,4 L453.5,4 Z M451.5,4 L453.5,4 L453.5,6 L451.5,6 L451.5,4 L451.5,4 Z M453.5,2 L455.5,2 L455.5,4 L453.5,4 L453.5,2 L453.5,2 Z M451.5,2 L453.5,2 L453.5,4 L451.5,4 L451.5,2 L451.5,2 Z M449.5,2 L451.5,2 L451.5,4 L449.5,4 L449.5,2 L449.5,2 Z M449.5,6 L451.5,6 L451.5,8 L449.5,8 L449.5,6 L449.5,6 Z M447.5,6 L449.5,6 L449.5,8 L447.5,8 L447.5,6 L447.5,6 Z M449.5,4 L451.5,4 L451.5,6 L449.5,6 L449.5,4 L449.5,4 Z M447.5,4 L449.5,4 L449.5,6 L447.5,6 L447.5,4 L447.5,4 Z M445.5,6 L447.5,6 L447.5,8 L445.5,8 L445.5,6 L445.5,6 Z M449.5,8 L451.5,8 L451.5,10 L449.5,10 L449.5,8 L449.5,8 Z M447.5,8 L449.5,8 L449.5,10 L447.5,10 L447.5,8 L447.5,8 Z M445.5,8 L447.5,8 L447.5,10 L445.5,10 L445.5,8 L445.5,8 Z M439.5,2 L441.5,2 L441.5,4 L439.5,4 L439.5,2 L439.5,2 Z M439.5,4 L441.5,4 L441.5,6 L439.5,6 L439.5,4 L439.5,4 Z M437.5,4 L439.5,4 L439.5,6 L437.5,6 L437.5,4 L437.5,4 Z M437.5,6 L439.5,6 L439.5,8 L437.5,8 L437.5,6 L437.5,6 Z M437.5,8 L439.5,8 L439.5,10 L437.5,10 L437.5,8 L437.5,8 Z M439.5,10 L441.5,10 L441.5,12 L439.5,12 L439.5,10 L439.5,10 Z M441.5,12 L443.5,12 L443.5,14 L441.5,14 L441.5,12 L441.5,12 Z M443.5,14 L445.5,14 L445.5,16 L443.5,16 L443.5,14 L443.5,14 Z M445.5,16 L447.5,16 L447.5,18 L445.5,18 L445.5,16 L445.5,16 Z M447.5,18 L449.5,18 L449.5,20 L447.5,20 L447.5,18 L447.5,18 Z M449.5,16 L451.5,16 L451.5,18 L449.5,18 L449.5,16 L449.5,16 Z M451.5,14 L453.5,14 L453.5,16 L451.5,16 L451.5,14 L451.5,14 Z M453.5,12 L455.5,12 L455.5,14 L453.5,14 L453.5,12 L453.5,12 Z M455.5,10 L457.5,10 L457.5,12 L455.5,12 L455.5,10 L455.5,10 Z M457.5,8 L459.5,8 L459.5,10 L457.5,10 L457.5,8 L457.5,8 Z M457.5,6 L459.5,6 L459.5,8 L457.5,8 L457.5,6 L457.5,6 Z M457.5,4 L459.5,4 L459.5,6 L457.5,6 L457.5,4 L457.5,4 Z M455.5,2 L457.5,2 L457.5,4 L455.5,4 L455.5,2 L455.5,2 Z M453.5,0 L455.5,0 L455.5,2 L453.5,2 L453.5,0 L453.5,0 Z M451.5,0 L453.5,0 L453.5,2 L451.5,2 L451.5,0 L451.5,0 Z" id="heart-icon"></path>
            </g>
        </g>
    </g>
</svg>