<?xml version="1.0" encoding="UTF-8"?>
<svg width="74px" height="42px" viewBox="0 0 74 42" version="1.1" xmlns="http://www.w3.org/2000/svg" xmlns:xlink="http://www.w3.org/1999/xlink">
    <!-- Generator: Sketch 63.1 (92452) - https://sketch.com -->
    <title>logomark</title>
    <desc>Created with Sketch.</desc>
    <g id="Page-1" stroke="none" stroke-width="1" fill="none" fill-rule="evenodd">
        <g id="V2" transform="translate(-475.000000, -751.000000)" fill="#FFFFFF">
            <g id="ludu" transform="translate(0.000000, 700.000000)">
                <path d="M511.412166,51.1516639 C511.412166,51.1516639 511.764005,50.7322284 513.022204,51.2883975 C518.703109,53.801138 547.280189,65.5989536 548.431052,66.3597763 C549.711185,67.2060947 548.431052,68.1408878 548.431052,68.1408878 L548.431052,68.1408878 L538.77404,73.0734257 L536.627907,74.0326461 L532.903,75.554 L532.795693,75.1096154 L526.613525,77.7035194 C526.540603,78.0420215 527.327092,78.140444 528.972992,77.998787 C529.432795,77.9592133 529.875428,77.9041397 530.30089,77.8335664 C530.951526,79.9656035 532.127326,84.5787576 531.397111,84.5828794 C525.12893,84.618031 507.657165,92.8035773 507.657165,92.8035773 C507.657165,92.8035773 506.421779,93.3931106 505.511032,92.5295143 C498.902624,86.2622687 491.33707,85.0323141 490.419885,84.9939848 L490.355031,84.993676 C489.83239,85.0252528 489.952595,84.1717849 489.952595,84.1717849 C489.952595,84.1717849 491.337432,78.7349116 492.292049,76.6395213 C492.445302,76.3029005 492.500871,76.0881185 492.500871,76.0881185 L492.500871,76.0881185 L475.332981,68.0041542 C475.332981,68.0041542 474.428376,67.0920011 475.601174,66.6341372 C475.966175,66.4917436 510.566055,51.4939447 511.412166,51.1516639 Z" id="logomark"></path>
            </g>
        </g>
    </g>
</svg>