<?xml version="1.0" encoding="UTF-8"?>
<svg width="86px" height="46px" viewBox="0 0 86 46" version="1.1" xmlns="http://www.w3.org/2000/svg" xmlns:xlink="http://www.w3.org/1999/xlink">
    <!-- Generator: Sketch 63.1 (92452) - https://sketch.com -->
    <title>logotype</title>
    <desc>Created with Sketch.</desc>
    <g id="Page-1" stroke="none" stroke-width="1" fill="none" fill-rule="evenodd">
        <g id="V2" transform="translate(-673.000000, -822.000000)" fill="#FFFFFF">
            <g id="ludu" transform="translate(0.000000, 700.000000)">
                <g id="text" transform="translate(265.000000, 122.000000)">
                    <path d="M464.803966,0 C465.554927,0 466.194032,0.195454168 466.721303,0.586368366 C467.248573,0.977282565 467.675975,1.49583444 468.003521,2.14203954 C468.331068,2.78824465 468.566738,3.53815043 468.710539,4.3917794 C468.85434,5.24540836 468.926239,6.12694655 468.926239,7.0364204 C468.926239,7.59486925 468.902273,8.16926517 468.854339,8.75962539 C468.646627,11.0093765 468.263163,13.1354392 467.703938,15.1378772 C467.144712,17.1403152 466.489628,19.0908681 465.738668,20.9895942 C464.987707,22.8883203 464.172847,24.7710625 463.294064,26.6378772 C462.41528,28.504692 461.560476,30.4432782 460.729626,32.4536941 C460.649737,32.6770736 460.569849,32.9483161 460.489959,33.2674298 C460.41007,33.5865434 460.334176,33.9335743 460.262276,34.3085328 C460.190375,34.6834913 460.130459,35.0664219 460.082525,35.4573361 C460.034592,35.8482503 460.010625,36.2271921 460.010625,36.5941727 C460.010625,37.0568875 460.038586,37.4956622 460.094509,37.9105099 C460.150431,38.3253576 460.242303,38.6963216 460.370126,39.0234131 C460.497949,39.3505046 460.669709,39.6097805 460.88541,39.8012487 C461.101111,39.9927169 461.368737,40.0884495 461.688295,40.0884495 C461.991874,40.0884495 462.323411,40.0286166 462.682913,39.908949 C463.042415,39.7892814 463.421884,39.6257381 463.821331,39.4183143 C464.220778,39.2108904 464.624214,38.9755476 465.03165,38.7122789 C465.422284,38.4598666 465.801898,38.2037912 466.170501,37.9440458 C466.238615,37.3404554 466.326984,36.6905779 466.43514,35.9958377 C466.730731,34.0971116 467.094222,31.9271714 467.525625,29.4859521 C467.557581,29.2466169 467.617497,28.9235192 467.705376,28.5166493 C467.793254,28.1097794 467.913086,27.6670159 468.064876,27.1883455 C468.216666,26.709675 468.404403,26.223034 468.628094,25.7284079 C468.851784,25.2337818 469.115415,24.7870294 469.418995,24.3881374 C469.722575,23.9892453 470.078077,23.6621588 470.485513,23.4068678 C470.892949,23.1515769 471.352307,23.0159557 471.863599,23 C472.710427,23.0319114 473.317577,23.1396106 473.685068,23.3231009 C474.05256,23.5065913 474.236303,23.7339563 474.236303,24.0052029 C474.092502,24.850854 473.93672,25.7922251 473.768952,26.8293444 C473.601184,27.8664637 473.429424,28.9115452 473.253668,29.9646202 C473.077911,31.0176952 472.910146,32.0428323 472.750367,33.0400624 C472.590588,34.0372925 472.446789,34.9268084 472.318966,35.7086368 C472.191143,36.4904652 472.091283,37.1207052 472.019382,37.5993757 C471.947482,38.0780461 471.911532,38.3253555 471.911532,38.3413111 C471.911532,38.6285134 471.939493,38.9037448 471.995416,39.1670135 C472.051338,39.4302823 472.135221,39.665625 472.247066,39.8730489 C472.358911,40.0804728 472.50271,40.2480049 472.678467,40.3756504 C472.854223,40.5032958 473.061933,40.5671176 473.301601,40.5671176 C473.653115,40.5671176 474.012612,40.4753738 474.380103,40.2918835 C474.747594,40.1083931 475.095108,39.8451283 475.422654,39.5020812 C475.750201,39.159034 476.041793,38.7362148 476.297439,38.2336108 C476.553085,37.7310069 476.744817,37.1605998 476.87264,36.5223725 L479.245344,24.364204 C479.325233,23.9812676 479.648781,23.6581699 480.215995,23.3949011 C480.78321,23.1316324 481.42631,23 482.145315,23 C482.960187,23 483.607282,23.143599 484.086618,23.4308012 C484.565955,23.7180035 484.805619,24.0849787 484.805619,24.5317378 C484.805619,24.9625412 484.757686,25.5489037 484.661819,26.2908429 C484.565952,27.0327821 484.442125,27.8465096 484.290335,28.7320499 C484.138545,29.6175903 483.974774,30.5310393 483.799018,31.4724246 C483.623261,32.4138098 483.45949,33.2913591 483.3077,34.1050989 C483.15591,34.9188386 483.032084,35.6328447 482.936216,36.2471384 C482.840349,36.8614321 482.792416,37.2882402 482.792416,37.5275754 C482.792416,37.9743345 482.800405,38.3851872 482.816383,38.7601457 C482.832361,39.1351042 482.880294,39.4621908 482.960183,39.7414152 C483.040073,40.0206396 483.163899,40.2360381 483.331667,40.3876171 C483.499435,40.539196 483.743094,40.6149844 484.062652,40.6149844 C484.414165,40.6149844 484.841567,40.5272295 485.34487,40.351717 C485.848174,40.1762045 485.830053,40.224074 486.421235,39.8491155 C487.012416,39.474157 487.575628,39.0792598 488.110887,38.6644121 C488.646146,38.2495643 489.133465,37.8387117 489.572856,37.4318418 C490.012248,37.024972 490.367751,36.6460302 490.639375,36.2950052 L490.61418,36.3277243 C490.980587,35.8580996 491.241508,35.5487272 491.396942,35.3996072 C491.49925,35.3014553 491.799686,35.0833108 492.304812,35.0567862 C493.070617,35.016573 493.665047,35.4775979 493.864839,35.9295576 C494.24663,36.7932276 493.757445,37.812892 493.171344,38.7755879 C492.788007,39.4052349 491.960331,40.3331221 490.688314,41.5592494 C490.687308,41.5596712 490.687308,41.5600125 490.687308,41.5603538 C490.335795,41.9113788 489.900404,42.2863317 489.381123,42.6852237 C488.861841,43.0841158 488.286646,43.4830018 487.65552,43.8818939 C487.024394,44.2807859 486.483292,44.5121387 485.764288,44.7913632 C485.045283,45.0705876 484.334278,45.2939638 483.631251,45.4614984 C482.928224,45.6290331 482.273141,45.7127992 481.665981,45.7127992 C481.058821,45.7127992 480.539548,45.5931334 480.108145,45.3537981 C479.676742,45.1144629 479.305262,44.7793986 478.993693,44.3485952 C478.682125,43.9177918 478.418494,43.4032288 478.202792,42.8048907 C477.987091,42.2065527 477.799353,41.540413 477.639575,40.8064516 C477.064371,41.5563686 476.45722,42.2464415 475.818105,42.8766909 C475.17899,43.5069404 474.527901,44.0534143 473.864819,44.516129 C473.201737,44.9788438 472.530675,45.3418301 471.851615,45.6050989 C471.172555,45.8683676 470.513478,46 469.874362,46 C469.347092,46 468.851785,45.9122451 468.388427,45.7367326 C467.925068,45.5612201 467.513644,45.2660444 467.154141,44.8511967 C466.857666,44.5090791 466.61281,44.0774425 466.419568,43.5562777 L466.337835,43.6066597 L466.337835,43.6066597 C465.874477,43.893862 465.387159,44.1770711 464.875866,44.4562955 C464.364574,44.73552 463.861278,44.9828293 463.365964,45.198231 C462.87065,45.4136327 462.387326,45.5891426 461.915978,45.7247659 C461.444631,45.8603892 461.00924,45.9281998 460.609793,45.9281998 C460.386103,45.9281998 460.054566,45.8803335 459.615175,45.7845994 C459.175783,45.6888653 458.696454,45.4934111 458.177172,45.198231 C457.657891,44.9030509 457.138618,44.4762428 456.619337,43.917794 C456.100055,43.3593451 455.648687,42.617417 455.265218,41.6919875 C454.674036,42.266392 454.046914,42.8128659 453.383831,43.3314256 C452.720749,43.8499852 452.033711,44.3007265 451.322695,44.6836629 C450.611679,45.0665992 449.892685,45.3737415 449.165691,45.6050989 C448.438698,45.8364562 447.707721,45.9521332 446.972738,45.9521332 C445.934176,45.9521332 445.035433,45.728757 444.276484,45.2819979 C443.562178,44.8615188 442.961109,44.3103103 442.473259,43.6283577 L442.106059,43.8220604 L442.106059,43.8220604 C441.395043,44.189041 440.680044,44.5121387 439.961039,44.7913632 C439.242034,45.0705876 438.531029,45.2939638 437.828002,45.4614984 C437.124975,45.6290331 436.469892,45.7127992 435.862732,45.7127992 C435.255573,45.7127992 434.736299,45.5931334 434.304896,45.3537981 C433.873494,45.1144629 433.502013,44.7793986 433.190445,44.3485952 C432.878876,43.9177918 432.615245,43.4032288 432.399543,42.8048907 C432.183842,42.2065527 431.996105,41.540413 431.836326,40.8064516 C431.261122,41.5563686 430.653972,42.2464415 430.014856,42.8766909 C429.375741,43.5069404 428.724652,44.0534143 428.06157,44.516129 C427.398488,44.9788438 426.727427,45.3418301 426.048367,45.6050989 C425.369307,45.8683676 424.710229,46 424.071114,46 C423.543843,46 423.048536,45.9122451 422.585178,45.7367326 C422.121819,45.5612201 421.710395,45.2660444 421.350893,44.8511967 C421.091096,44.5514044 420.870936,44.1828727 420.69041,43.7455954 C420.377536,43.9108829 420.057146,44.0763928 419.731702,44.2408949 C419.084598,44.5679864 418.433509,44.8591732 417.778416,45.1144641 C417.123322,45.369755 416.484217,45.5731869 415.861079,45.7247659 C415.237942,45.8763448 414.654758,45.9521332 414.11151,45.9521332 C413.248704,45.9521332 412.445827,45.5731914 411.702856,44.8152966 C410.959884,44.0574017 410.31279,43.0402422 409.761553,41.7637877 C409.210316,40.4873332 408.778919,39.0074659 408.467351,37.3241415 C408.155782,35.6408171 408,33.8737519 408,32.0228928 C408,30.6028372 408.103855,29.0591481 408.311567,27.3917794 C408.51928,25.7244107 408.822855,24.0052118 409.222302,22.2341311 C409.621749,20.4630505 410.097084,18.6840186 410.648321,16.8969823 C411.199558,15.109946 411.822686,13.3947359 412.517724,11.7513007 C413.212762,10.1078655 413.967705,8.57215421 414.782577,7.14412071 C415.597449,5.71608721 416.452253,4.47156271 417.347015,3.41050989 C418.241776,2.34945706 419.176468,1.5157852 420.151119,0.909469303 C421.12577,0.303153403 422.116384,0 423.122991,0 C423.81004,0 424.377246,0.155565562 424.824627,0.466701353 C425.272007,0.777837144 425.623516,1.18868978 425.879162,1.69927159 C426.134808,2.2098534 426.314556,2.78823818 426.418413,3.43444329 C426.522269,4.08064839 426.574196,4.73881039 426.574196,5.40894901 C426.574196,6.90878308 426.402436,8.43651668 426.058912,9.99219563 C425.715388,11.5478746 425.252036,13.1115079 424.668843,14.6831426 C424.08565,16.2547772 423.410595,17.8303771 422.643657,19.4099896 C421.876718,20.9896021 421.077836,22.5572243 420.246986,24.1129032 C419.416136,25.6685822 418.581304,27.2003046 417.742465,28.7081165 C416.903627,30.2159285 416.116728,31.687818 415.381745,33.1238293 C415.301856,33.2833862 415.217973,33.4908069 415.130095,33.7460978 C415.042216,34.0013887 414.958334,34.2766201 414.878444,34.5718002 C414.798555,34.8669803 414.718667,35.1821003 414.638777,35.5171696 C414.558888,35.8522389 414.494977,36.1793255 414.447044,36.4984391 L414.447044,36.8335068 C414.447044,37.2483545 414.490982,37.6512294 414.57886,38.0421436 C414.666739,38.4330578 414.774588,38.7840775 414.902411,39.0952133 C415.030234,39.4063491 415.166044,39.6536585 415.309845,39.8371488 C415.453646,40.0206391 415.589456,40.1123829 415.717279,40.1123829 C416.020859,40.1123829 416.368372,40.0485612 416.759831,39.9209157 C417.151289,39.7932703 417.566707,39.6217493 418.006099,39.4063476 C418.445491,39.1909459 418.896859,38.9436365 419.360218,38.6644121 C419.701287,38.4588807 420.033695,38.2511905 420.357447,38.0413379 C420.425947,37.4100203 420.517936,36.7278304 420.631891,35.9958377 C420.927482,34.0971116 421.290974,31.9271714 421.722376,29.4859521 C421.754332,29.2466169 421.814248,28.9235192 421.902127,28.5166493 C421.990005,28.1097794 422.109837,27.6670159 422.261627,27.1883455 C422.413417,26.709675 422.601155,26.223034 422.824845,25.7284079 C423.048535,25.2337818 423.312166,24.7870294 423.615746,24.3881374 C423.919326,23.9892453 424.274829,23.6621588 424.682265,23.4068678 C425.089701,23.1515769 425.549058,23.0159557 426.06035,23 C426.907178,23.0319114 427.514328,23.1396106 427.88182,23.3231009 C428.249311,23.5065913 428.433054,23.7339563 428.433054,24.0052029 C428.289253,24.850854 428.133471,25.7922251 427.965703,26.8293444 C427.797935,27.8664637 427.626176,28.9115452 427.450419,29.9646202 C427.274662,31.0176952 427.106897,32.0428323 426.947118,33.0400624 C426.787339,34.0372925 426.64354,34.9268084 426.515717,35.7086368 C426.387894,36.4904652 426.288034,37.1207052 426.216134,37.5993757 C426.144233,38.0780461 426.108283,38.3253555 426.108283,38.3413111 C426.108283,38.6285134 426.136244,38.9037448 426.192167,39.1670135 C426.24809,39.4302823 426.331972,39.665625 426.443817,39.8730489 C426.555662,40.0804728 426.699461,40.2480049 426.875218,40.3756504 C427.050975,40.5032958 427.258684,40.5671176 427.498352,40.5671176 C427.849866,40.5671176 428.209363,40.4753738 428.576854,40.2918835 C428.944345,40.1083931 429.291859,39.8451283 429.619406,39.5020812 C429.946952,39.159034 430.238544,38.7362148 430.49419,38.2336108 C430.749837,37.7310069 430.941568,37.1605998 431.069391,36.5223725 L433.442095,24.364204 C433.521985,23.9812676 433.845532,23.6581699 434.412747,23.3949011 C434.979961,23.1316324 435.623062,23 436.342066,23 C437.156938,23 437.804033,23.143599 438.283369,23.4308012 C438.762706,23.7180035 439.002371,24.0849787 439.002371,24.5317378 C439.002371,24.9625412 438.954438,25.5489037 438.85857,26.2908429 C438.762703,27.0327821 438.638876,27.8465096 438.487086,28.7320499 C438.335297,29.6175903 438.171526,30.5310393 437.995769,31.4724246 C437.820012,32.4138098 437.656241,33.2913591 437.504452,34.1050989 C437.352662,34.9188386 437.228835,35.6328447 437.132968,36.2471384 C437.0371,36.8614321 436.989167,37.2882402 436.989167,37.5275754 C436.989167,37.9743345 436.997156,38.3851872 437.013134,38.7601457 C437.029112,39.1351042 437.077045,39.4621908 437.156934,39.7414152 C437.236824,40.0206396 437.36065,40.2360381 437.528418,40.3876171 C437.696186,40.539196 437.939845,40.6149844 438.259403,40.6149844 C438.610916,40.6149844 439.038318,40.5272295 439.541621,40.351717 C440.001614,40.1913079 440.488292,39.9809227 441.001668,39.720556 C440.924285,39.1736024 440.885195,38.6188956 440.885195,38.0541103 C440.885195,37.0329467 441.017011,35.9998318 441.280646,34.9547347 C441.544281,33.9096375 441.927744,32.8964669 442.431047,31.9151925 C442.934351,30.9339181 443.545496,30.0085024 444.2645,29.1389178 C444.983505,28.2693331 445.798365,27.4954942 446.709104,26.8173777 C447.619844,26.1392613 448.610457,25.5768319 449.680976,25.1300728 C450.751494,24.6833138 451.893895,24.4040935 453.108214,24.2924037 C453.156148,22.2500765 453.339891,20.2317131 453.659449,18.2372529 C453.979006,16.2427927 454.402414,14.344095 454.929684,12.541103 C455.456954,10.738111 456.076088,9.07076728 456.787104,7.53902185 C457.498119,6.00727642 458.277029,4.68297471 459.123857,3.566077 C459.970685,2.44917929 460.873422,1.57561883 461.832095,0.945369407 C462.790768,0.315119984 463.781382,0 464.803966,0 Z M453.204081,27.8584807 C452.149541,28.3690626 451.210854,29.04318 450.387993,29.8808533 C449.565132,30.7185266 448.878094,31.6239979 448.326857,32.5972945 C447.77562,33.5705911 447.356207,34.5518508 447.068605,35.541103 C446.781003,36.5303553 446.637204,37.42386 446.637204,38.2216441 C446.637204,38.5407578 446.673154,38.8598666 446.745054,39.1789802 C446.816955,39.4980939 446.94877,39.7852918 447.140505,40.0405827 C447.332239,40.2958736 447.603859,40.5032944 447.955373,40.6628512 C448.306886,40.822408 448.762249,40.9021852 449.321475,40.9021852 C449.609077,40.9021852 449.89268,40.8303857 450.172293,40.6867846 C450.451906,40.5431835 450.719531,40.355707 450.975178,40.1243496 C451.230824,39.8929923 451.474483,39.6297275 451.706162,39.3345473 C451.937841,39.0393672 452.149545,38.732225 452.34128,38.4131113 C452.788661,37.67915 453.19609,36.849467 453.563582,35.9240375 C453.515648,35.7006579 453.475704,35.3456493 453.443748,34.859001 C453.411792,34.3723528 453.387826,33.8298677 453.371848,33.2315297 C453.35587,32.6331916 453.339893,32.0149182 453.323915,31.3766909 C453.307937,30.7384637 453.295954,30.15609 453.287965,29.6295525 C453.279976,29.1030151 453.267992,28.6722181 453.252015,28.3371488 C453.236037,28.0020795 453.220059,27.8425251 453.204081,27.8584807 Z M463.725465,5.55254943 C463.214172,5.55254943 462.750821,5.87564713 462.335396,6.52185224 C461.919971,7.16805734 461.552485,7.99375148 461.232927,8.99895942 C460.91337,10.0041674 460.633761,11.1130706 460.394093,12.3257024 C460.154424,13.5383342 459.954704,14.7110592 459.794925,15.8439126 C459.635146,16.976766 459.507325,17.9979143 459.411458,18.9073881 C459.31559,19.816862 459.25168,20.4630574 459.219724,20.8459938 C459.155813,21.6278222 459.103885,22.3817168 459.06394,23.1077003 C459.023996,23.8336838 458.996035,24.4958347 458.980057,25.0941727 C458.964079,25.6925108 458.95609,26.2150515 458.95609,26.6618106 L458.95609,27.930281 C459.86683,25.8560424 460.705656,23.7898126 461.472594,21.7315297 C461.792152,20.8539672 462.115699,19.9325404 462.443246,18.9672216 C462.770792,18.0019029 463.070373,17.0326098 463.341997,16.0593132 C463.613621,15.0860166 463.849292,14.1286901 464.049015,13.1873049 C464.248739,12.2459197 464.388543,11.3524149 464.468432,10.5067638 C464.5643,9.38986608 464.612233,8.50433903 464.612233,7.85015609 C464.612233,6.98854928 464.536339,6.3902202 464.384549,6.05515088 C464.232759,5.72008157 464.013066,5.55254943 463.725465,5.55254943 Z M421.325488,6.12695109 C420.862129,6.12695109 420.362828,6.42611563 419.827569,7.02445369 C419.29231,7.62279175 418.757059,8.43253045 418.2218,9.45369407 C417.68654,10.4748577 417.175256,11.6635381 416.68793,13.0197711 C416.200605,14.376004 415.765214,15.8199715 415.381745,17.351717 C414.998276,18.8834624 414.694701,20.4590623 414.47101,22.078564 C414.24732,23.6980657 414.135476,25.2736656 414.135476,26.805411 C414.854481,25.5289565 415.617414,24.0929667 416.424297,22.4973985 C417.23118,20.9018304 417.994112,19.2584198 418.713117,17.5671176 C419.432122,15.8758153 420.05525,14.1885273 420.58252,12.5052029 C421.10979,10.8218785 421.445321,9.25425631 421.589122,7.80228928 C421.589122,7.33957452 421.577138,6.94467732 421.553172,6.61758585 C421.529205,6.29049438 421.453311,6.12695109 421.325488,6.12695109 Z" id="logotype"></path>
                </g>
            </g>
        </g>
    </g>
</svg>