<?xml version="1.0" encoding="UTF-8"?>
<svg width="46px" height="72px" viewBox="0 0 46 72" version="1.1" xmlns="http://www.w3.org/2000/svg" xmlns:xlink="http://www.w3.org/1999/xlink">
    <!-- Generator: Sketch 63.1 (92452) - https://sketch.com -->
    <title>logomark</title>
    <desc>Created with Sketch.</desc>
    <g id="Page-1" stroke="none" stroke-width="1" fill="none" fill-rule="evenodd">
        <g id="V2" transform="translate(-490.000000, -1411.000000)" fill="#56BAA5">
            <g id="safello" transform="translate(0.000000, 1358.000000)">
                <path d="M518.917975,79.2892308 L533.951807,87.8325423 L533.951807,112.084795 L512.632266,124.2 L490,111.33883 L530.053333,88.577667 L516.312797,80.7702395 L518.917975,79.2892308 Z M513.924718,102.173881 L513.924718,120.503779 L530.053333,111.33883 L513.924718,102.173881 Z M511.33897,102.173881 L495.211199,111.33883 L511.33897,120.503779 L511.33897,102.173881 Z M531.366059,90.7937197 L515.238288,99.9578284 L531.366059,109.123617 L531.366059,90.7937197 Z M512.968578,53 L535.6,65.8597269 L495.545822,88.6174957 L509.296495,96.4307667 L506.691318,97.9107692 L491.648193,89.3633766 L491.648193,65.1138459 L512.966044,53 L512.968578,53 Z M494.233941,68.0746909 L494.233941,86.4016917 L510.361712,77.2386113 L494.233941,68.0746909 Z M514.260185,56.6949666 L514.260185,75.0228073 L530.387956,65.8597269 L514.260185,56.6949666 Z M511.674437,56.6958065 L495.545822,65.8597269 L511.674437,75.0228073 L511.674437,56.6958065 Z" id="logomark"></path>
            </g>
        </g>
    </g>
</svg>