<?xml version="1.0" encoding="UTF-8"?>
<svg width="239px" height="60px" viewBox="0 0 239 60" version="1.1" xmlns="http://www.w3.org/2000/svg" xmlns:xlink="http://www.w3.org/1999/xlink">
    <title>socialbubble</title>
    <g id="Page-1" stroke="none" stroke-width="1" fill="none" fill-rule="evenodd">
        <g id="V2" transform="translate(-78.000000, -3156.000000)">
            <g id="freebies" transform="translate(64.000000, 2809.000000)">
                <g id="logos" transform="translate(0.000000, 203.000000)">
                    <g id="socialbubble" transform="translate(0.000000, 123.000000)">
                        <g transform="translate(14.000000, 21.000000)">
                            <g id="logo">
                                <polygon id="Path" fill="#FFFFFF" points="27.1001147 4 10.0500158 7.97327579 4 20.073598 5.2833397 31.6323048 10.0500158 39.939715 10.0500158 53.8462949 11.8833297 53.5866678 11.8833297 58 33.1502302 58 33.1502302 50.5765658 34.2938495 50.4148309 35.7166437 50.4148309 35.7166437 50.2134808 39.9335117 49.6166333 48 34.8830448 44.5169627 27.6589962 41.9502169 14.2943264 35.7166437 9.5184004 35.7166437 8.51512036 34.2120912 8.51512036"></polygon>
                                <path d="M19.1284347,39 C19.6480241,39 20.17214,38.9323026 20.6885114,38.7877688 C21.4185109,38.5853537 21.8399679,37.8464371 21.6315026,37.1396767 C21.4223655,36.4315624 20.658382,36.0226704 19.9328735,36.2237315 C17.9737955,36.7714031 15.7991796,35.2634446 15.0916356,32.8656043 C14.5976844,31.1961876 14.6387409,29.7846978 15.2064594,28.8917697 C15.6035158,28.2659077 16.273858,27.8749555 17.2559608,27.695219 C18.3028488,27.4988967 19.2638045,28.3539143 19.6281501,28.7292961 C20.1490479,29.2647821 21.0182365,29.2877992 21.5705367,28.7817615 C22.1209274,28.2760623 22.1459644,27.4315378 21.62443,26.8967287 C20.1984147,25.431758 18.4228003,24.7659545 16.7453536,25.073639 C15.0101591,25.3918166 13.6694749,26.2285558 12.866981,27.4921269 C11.8758959,29.0542434 11.7309074,31.1670778 12.4506517,33.6014746 C13.4038983,36.8350386 16.2116544,39 19.1284347,39 Z" id="Path" fill-opacity="0.95" fill="#000000" fill-rule="nonzero"></path>
                                <path d="M2.84116244,19.48661 C4.88144265,10.0771033 12.9701102,2.92167814 22.7794775,2.38736926 L22.7794775,0 L27.8891681,0 L27.8891681,2.75494439 C35.873018,4.35360347 43.0054748,10.5949704 44.7165852,18.0351993 C44.8048211,18.4191832 44.8940559,18.9261332 44.9809599,19.48661 L48.351904,19.4969647 C51.471459,19.4969647 54,22.0924534 54,25.2350207 L54,36.1550889 C54,39.2975569 51.471126,41.8462013 48.351904,41.8462013 L45.5839607,41.8462013 L45.5839607,43.177094 C45.5839607,49.0471806 41.8331028,52.5525592 35.5490424,52.5532208 L35.5490424,60 L10.0691471,60 L10.0691471,41.9636428 C5.53435496,38.0513544 2.49810795,31.2361124 2.35193604,24.6355732 L0,24.6355732 L0,19.48661 L2.84116244,19.48661 Z M22.7794775,5.22508505 C14.5235946,5.74295214 7.69483576,11.6471795 5.72341285,19.4872055 L22.7794775,19.4872055 L22.7794775,5.22508505 Z M12.3419705,40.1831645 L12.8789109,40.6082694 L12.8789109,57.1701577 L32.7401444,57.1701577 L32.7401444,52.5532208 L27.8778472,52.5532208 L27.8778472,49.7227169 L35.5480435,49.7227169 C40.2761555,49.7227169 42.7747296,47.4589093 42.7747296,43.177094 L42.7747296,35.7124504 L47.8701027,35.7124504 C47.9939659,35.7124504 48.0911919,35.6151891 48.0857666,35.4229821 L42.8080262,24.8942751 L42.7820549,24.6325958 C42.6618543,23.4227506 42.2826064,19.9935269 41.9799407,18.6723605 C40.571829,12.550883 34.555473,7.23938754 27.8891681,5.66749188 L27.8891681,19.48661 L34.0620179,19.48661 C37.1822389,19.48661 39.8815913,22.0924534 39.8815913,25.2350207 L39.8815913,36.1550889 C39.8815913,39.2975569 37.3527173,41.8462013 34.2331623,41.8462013 L22.7904653,41.8462013 L22.7904653,24.6362348 L5.16229916,24.6362348 C5.31090173,30.6694162 8.15266351,36.8650306 12.3419705,40.1831645 Z" id="Shape" fill-opacity="0.95" fill="#000000" fill-rule="nonzero"></path>
                            </g>
                            <g id="SocialBubble" transform="translate(71.868000, 19.832000)" fill-rule="nonzero">
                                <path d="M6.496,21.672 C7.46666667,21.672 8.39066667,21.5413333 9.268,21.28 C10.1453333,21.0186667 10.9153333,20.6266667 11.578,20.104 C12.2406667,19.5813333 12.768,18.9233333 13.16,18.13 C13.552,17.3366667 13.748,16.408 13.748,15.344 C13.748,14.168 13.5146667,13.2253333 13.048,12.516 C12.5813333,11.8066667 12.0026667,11.2373333 11.312,10.808 C10.6213333,10.3786667 9.86533333,10.0426667 9.044,9.8 C8.22266667,9.55733333 7.46666667,9.30533333 6.776,9.044 C6.08533333,8.78266667 5.50666667,8.47466667 5.04,8.12 C4.57333333,7.76533333 4.34,7.252 4.34,6.58 C4.34,6.132 4.43333333,5.74466667 4.62,5.418 C4.80666667,5.09133333 5.054,4.82533333 5.362,4.62 C5.67,4.41466667 6.01533333,4.26533333 6.398,4.172 C6.78066667,4.07866667 7.17733333,4.032 7.588,4.032 C8.27866667,4.032 8.93666667,4.158 9.562,4.41 C10.1873333,4.662 10.6866667,5.05866667 11.06,5.6 L11.06,5.6 L13.636,2.884 C12.852,2.156 11.97,1.63333333 10.99,1.316 C10.01,0.998666667 8.99733333,0.84 7.952,0.84 C7.03733333,0.84 6.14133333,0.961333333 5.264,1.204 C4.38666667,1.44666667 3.60733333,1.81533333 2.926,2.31 C2.24466667,2.80466667 1.694,3.42533333 1.274,4.172 C0.854,4.91866667 0.644,5.80533333 0.644,6.832 C0.644,8.008 0.877333333,8.946 1.344,9.646 C1.81066667,10.346 2.38933333,10.906 3.08,11.326 C3.77066667,11.746 4.52666667,12.0773333 5.348,12.32 C6.16933333,12.5626667 6.92533333,12.8193333 7.616,13.09 C8.30666667,13.3606667 8.88533333,13.692 9.352,14.084 C9.81866667,14.476 10.052,15.036 10.052,15.764 C10.052,16.212 9.94933333,16.6086667 9.744,16.954 C9.53866667,17.2993333 9.268,17.584 8.932,17.808 C8.596,18.032 8.22266667,18.2 7.812,18.312 C7.40133333,18.424 6.99066667,18.48 6.58,18.48 C5.796,18.48 5.054,18.298 4.354,17.934 C3.654,17.57 3.08933333,17.0613333 2.66,16.408 L2.66,16.408 L8.52651283e-14,18.984 C0.821333333,19.9546667 1.80133333,20.6453333 2.94,21.056 C4.07866667,21.4666667 5.264,21.672 6.496,21.672 Z M23.744,21.504 C24.752,21.504 25.704,21.336 26.6,21 C27.496,20.664 28.2706667,20.188 28.924,19.572 C29.5773333,18.956 30.0953333,18.214 30.478,17.346 C30.8606667,16.478 31.052,15.512 31.052,14.448 C31.052,13.384 30.8606667,12.418 30.478,11.55 C30.0953333,10.682 29.5773333,9.94 28.924,9.324 C28.2706667,8.708 27.496,8.232 26.6,7.896 C25.704,7.56 24.752,7.392 23.744,7.392 C22.736,7.392 21.784,7.56 20.888,7.896 C19.992,8.232 19.2173333,8.708 18.564,9.324 C17.9106667,9.94 17.3926667,10.682 17.01,11.55 C16.6273333,12.418 16.436,13.384 16.436,14.448 C16.436,15.512 16.6273333,16.478 17.01,17.346 C17.3926667,18.214 17.9106667,18.956 18.564,19.572 C19.2173333,20.188 19.992,20.664 20.888,21 C21.784,21.336 22.736,21.504 23.744,21.504 Z M23.744,18.48 C23.128,18.48 22.5773333,18.368 22.092,18.144 C21.6066667,17.92 21.1913333,17.6213333 20.846,17.248 C20.5006667,16.8746667 20.2393333,16.4453333 20.062,15.96 C19.8846667,15.4746667 19.796,14.9706667 19.796,14.448 C19.796,13.9253333 19.8846667,13.4213333 20.062,12.936 C20.2393333,12.4506667 20.5006667,12.0213333 20.846,11.648 C21.1913333,11.2746667 21.6066667,10.976 22.092,10.752 C22.5773333,10.528 23.128,10.416 23.744,10.416 C24.36,10.416 24.9106667,10.528 25.396,10.752 C25.8813333,10.976 26.2966667,11.2746667 26.642,11.648 C26.9873333,12.0213333 27.2486667,12.4506667 27.426,12.936 C27.6033333,13.4213333 27.692,13.9253333 27.692,14.448 C27.692,14.9706667 27.6033333,15.4746667 27.426,15.96 C27.2486667,16.4453333 26.9873333,16.8746667 26.642,17.248 C26.2966667,17.6213333 25.8813333,17.92 25.396,18.144 C24.9106667,18.368 24.36,18.48 23.744,18.48 Z M40.824,21.504 C41.1226667,21.504 41.4773333,21.4713333 41.888,21.406 C42.2986667,21.3406667 42.728,21.2333333 43.176,21.084 C43.624,20.9346667 44.0673333,20.7386667 44.506,20.496 C44.9446667,20.2533333 45.332,19.964 45.668,19.628 L45.668,19.628 L43.428,17.22 C43.1106667,17.6306667 42.728,17.9433333 42.28,18.158 C41.832,18.3726667 41.3466667,18.48 40.824,18.48 C40.208,18.48 39.6573333,18.368 39.172,18.144 C38.6866667,17.92 38.2713333,17.6213333 37.926,17.248 C37.5806667,16.8746667 37.3193333,16.4453333 37.142,15.96 C36.9646667,15.4746667 36.876,14.9706667 36.876,14.448 C36.876,13.9253333 36.9646667,13.4213333 37.142,12.936 C37.3193333,12.4506667 37.5806667,12.0213333 37.926,11.648 C38.2713333,11.2746667 38.6866667,10.976 39.172,10.752 C39.6573333,10.528 40.208,10.416 40.824,10.416 C41.272,10.416 41.7106667,10.5373333 42.14,10.78 C42.5693333,11.0226667 42.98,11.3493333 43.372,11.76 L43.372,11.76 L45.696,9.436 C45.0426667,8.72666667 44.282,8.20866667 43.414,7.882 C42.546,7.55533333 41.6826667,7.392 40.824,7.392 C39.816,7.392 38.864,7.56 37.968,7.896 C37.072,8.232 36.2973333,8.708 35.644,9.324 C34.9906667,9.94 34.4726667,10.682 34.09,11.55 C33.7073333,12.418 33.516,13.384 33.516,14.448 C33.516,15.512 33.7073333,16.478 34.09,17.346 C34.4726667,18.214 34.9906667,18.956 35.644,19.572 C36.2973333,20.188 37.072,20.664 37.968,21 C38.864,21.336 39.816,21.504 40.824,21.504 Z M49.392,5.18 C50.008,5.18 50.526,4.98866667 50.946,4.606 C51.366,4.22333333 51.576,3.74266667 51.576,3.164 C51.576,2.58533333 51.366,2.10466667 50.946,1.722 C50.526,1.33933333 50.008,1.148 49.392,1.148 C48.776,1.148 48.2673333,1.34866667 47.866,1.75 C47.4646667,2.15133333 47.264,2.62266667 47.264,3.164 C47.264,3.70533333 47.4646667,4.17666667 47.866,4.578 C48.2673333,4.97933333 48.776,5.18 49.392,5.18 Z M51.1,21.168 L51.1,7.728 L47.74,7.728 L47.74,21.168 L51.1,21.168 Z M58.968,21.504 C59.864,21.504 60.6853333,21.3313333 61.432,20.986 C62.1786667,20.6406667 62.7946667,20.0853333 63.28,19.32 L63.28,19.32 L63.364,19.32 L63.364,21.168 L66.388,21.168 L66.388,13.44 C66.388,13.1226667 66.3786667,12.754 66.36,12.334 C66.3413333,11.914 66.2806667,11.48 66.178,11.032 C66.0753333,10.584 65.9073333,10.1406667 65.674,9.702 C65.4406667,9.26333333 65.1093333,8.876 64.68,8.54 C64.2506667,8.204 63.7093333,7.92866667 63.056,7.714 C62.4026667,7.49933333 61.6,7.392 60.648,7.392 C59.584,7.392 58.5526667,7.56 57.554,7.896 C56.5553333,8.232 55.6826667,8.78266667 54.936,9.548 L54.936,9.548 L56.7,11.312 C57.148,10.8826667 57.68,10.542 58.296,10.29 C58.912,10.038 59.5746667,9.912 60.284,9.912 C61.18,9.912 61.9173333,10.122 62.496,10.542 C63.0746667,10.962 63.364,11.592 63.364,12.432 L63.364,12.432 L63.364,12.796 L62.524,12.796 C61.964,12.796 61.3666667,12.81 60.732,12.838 C60.0973333,12.866 59.4673333,12.9313333 58.842,13.034 C58.2166667,13.1366667 57.6146667,13.2906667 57.036,13.496 C56.4573333,13.7013333 55.9486667,13.9766667 55.51,14.322 C55.0713333,14.6673333 54.7213333,15.0966667 54.46,15.61 C54.1986667,16.1233333 54.068,16.744 54.068,17.472 C54.068,18.144 54.208,18.732 54.488,19.236 C54.768,19.74 55.1366667,20.16 55.594,20.496 C56.0513333,20.832 56.574,21.084 57.162,21.252 C57.75,21.42 58.352,21.504 58.968,21.504 Z M59.78,18.984 C59.5,18.984 59.22,18.9513333 58.94,18.886 C58.66,18.8206667 58.408,18.7133333 58.184,18.564 C57.96,18.4146667 57.778,18.2326667 57.638,18.018 C57.498,17.8033333 57.428,17.5373333 57.428,17.22 C57.428,16.7346667 57.6053333,16.3566667 57.96,16.086 C58.3146667,15.8153333 58.7486667,15.61 59.262,15.47 C59.7753333,15.33 60.3213333,15.2413333 60.9,15.204 C61.4786667,15.1666667 62.0013333,15.148 62.468,15.148 L62.468,15.148 L63.168,15.148 L63.168,15.904 C63.168,16.856 62.8926667,17.6073333 62.342,18.158 C61.7913333,18.7086667 60.9373333,18.984 59.78,18.984 Z M73.416,21.168 L73.416,2.4158453e-13 L70.056,2.4158453e-13 L70.056,21.168 L73.416,21.168 Z" id="Social" fill="#223148"></path>
                                <path d="M84.728,21.168 C85.6613333,21.168 86.5806667,21.0746667 87.486,20.888 C88.3913333,20.7013333 89.194,20.3886667 89.894,19.95 C90.594,19.5113333 91.1586667,18.9326667 91.588,18.214 C92.0173333,17.4953333 92.232,16.5946667 92.232,15.512 C92.232,14.8773333 92.1246667,14.2846667 91.91,13.734 C91.6953333,13.1833333 91.4013333,12.698 91.028,12.278 C90.6546667,11.858 90.202,11.5126667 89.67,11.242 C89.138,10.9713333 88.564,10.7986667 87.948,10.724 L87.948,10.724 L87.948,10.668 C88.9746667,10.3506667 89.8053333,9.828 90.44,9.1 C91.0746667,8.372 91.392,7.448 91.392,6.328 C91.392,5.432 91.2146667,4.66666667 90.86,4.032 C90.5053333,3.39733333 90.0433333,2.87933333 89.474,2.478 C88.9046667,2.07666667 88.256,1.78733333 87.528,1.61 C86.8,1.43266667 86.0626667,1.344 85.316,1.344 L85.316,1.344 L77.588,1.344 L77.588,21.168 L84.728,21.168 Z M84.336,9.408 L81.116,9.408 L81.116,4.368 L84.028,4.368 C85.372,4.368 86.3473333,4.578 86.954,4.998 C87.5606667,5.418 87.864,6.05733333 87.864,6.916 C87.864,7.66266667 87.57,8.26466667 86.982,8.722 C86.394,9.17933333 85.512,9.408 84.336,9.408 L84.336,9.408 Z M84.364,18.144 L81.116,18.144 L81.116,12.432 L84.504,12.432 C85.9413333,12.432 87.0006667,12.6373333 87.682,13.048 C88.3633333,13.4586667 88.704,14.1866667 88.704,15.232 C88.704,15.8853333 88.564,16.4033333 88.284,16.786 C88.004,17.1686667 87.6493333,17.4626667 87.22,17.668 C86.7906667,17.8733333 86.3193333,18.004 85.806,18.06 C85.2926667,18.116 84.812,18.144 84.364,18.144 L84.364,18.144 Z M100.324,21.504 C101.444,21.504 102.330667,21.2566667 102.984,20.762 C103.637333,20.2673333 104.122667,19.684 104.44,19.012 L104.44,19.012 L104.496,19.012 L104.496,21.168 L107.688,21.168 L107.688,7.728 L104.328,7.728 L104.328,15.064 C104.328,15.512 104.272,15.9413333 104.16,16.352 C104.048,16.7626667 103.866,17.1266667 103.614,17.444 C103.362,17.7613333 103.044667,18.0133333 102.662,18.2 C102.279333,18.3866667 101.808,18.48 101.248,18.48 C100.650667,18.48 100.188667,18.3446667 99.862,18.074 C99.5353333,17.8033333 99.2926667,17.4673333 99.134,17.066 C98.9753333,16.6646667 98.8773333,16.2353333 98.84,15.778 C98.8026667,15.3206667 98.784,14.9053333 98.784,14.532 L98.784,14.532 L98.784,7.728 L95.424,7.728 L95.424,16.212 C95.424,16.9026667 95.508,17.5653333 95.676,18.2 C95.844,18.8346667 96.124,19.3993333 96.516,19.894 C96.908,20.3886667 97.4166667,20.7806667 98.042,21.07 C98.6673333,21.3593333 99.428,21.504 100.324,21.504 Z M119.364,21.504 C120.390667,21.504 121.314667,21.322 122.136,20.958 C122.957333,20.594 123.657333,20.0946667 124.236,19.46 C124.814667,18.8253333 125.253333,18.0786667 125.552,17.22 C125.850667,16.3613333 126,15.4373333 126,14.448 C126,13.4586667 125.841333,12.5346667 125.524,11.676 C125.206667,10.8173333 124.763333,10.0706667 124.194,9.436 C123.624667,8.80133333 122.938667,8.302 122.136,7.938 C121.333333,7.574 120.456,7.392 119.504,7.392 C118.869333,7.392 118.309333,7.45733333 117.824,7.588 C117.338667,7.71866667 116.909333,7.88666667 116.536,8.092 C116.162667,8.29733333 115.845333,8.51666667 115.584,8.75 C115.322667,8.98333333 115.108,9.212 114.94,9.436 L114.94,9.436 L114.856,9.436 L114.856,-4.61852778e-14 L111.496,-4.61852778e-14 L111.496,21.168 L114.688,21.168 L114.688,19.152 L114.744,19.152 C115.229333,19.9733333 115.882667,20.5706667 116.704,20.944 C117.525333,21.3173333 118.412,21.504 119.364,21.504 Z M118.692,18.48 C118.076,18.48 117.525333,18.368 117.04,18.144 C116.554667,17.92 116.139333,17.6213333 115.794,17.248 C115.448667,16.8746667 115.187333,16.4453333 115.01,15.96 C114.832667,15.4746667 114.744,14.9706667 114.744,14.448 C114.744,13.9253333 114.832667,13.4213333 115.01,12.936 C115.187333,12.4506667 115.448667,12.0213333 115.794,11.648 C116.139333,11.2746667 116.554667,10.976 117.04,10.752 C117.525333,10.528 118.076,10.416 118.692,10.416 C119.308,10.416 119.858667,10.528 120.344,10.752 C120.829333,10.976 121.244667,11.2746667 121.59,11.648 C121.935333,12.0213333 122.196667,12.4506667 122.374,12.936 C122.551333,13.4213333 122.64,13.9253333 122.64,14.448 C122.64,14.9706667 122.551333,15.4746667 122.374,15.96 C122.196667,16.4453333 121.935333,16.8746667 121.59,17.248 C121.244667,17.6213333 120.829333,17.92 120.344,18.144 C119.858667,18.368 119.308,18.48 118.692,18.48 Z M137.004,21.504 C138.030667,21.504 138.954667,21.322 139.776,20.958 C140.597333,20.594 141.297333,20.0946667 141.876,19.46 C142.454667,18.8253333 142.893333,18.0786667 143.192,17.22 C143.490667,16.3613333 143.64,15.4373333 143.64,14.448 C143.64,13.4586667 143.481333,12.5346667 143.164,11.676 C142.846667,10.8173333 142.403333,10.0706667 141.834,9.436 C141.264667,8.80133333 140.578667,8.302 139.776,7.938 C138.973333,7.574 138.096,7.392 137.144,7.392 C136.509333,7.392 135.949333,7.45733333 135.464,7.588 C134.978667,7.71866667 134.549333,7.88666667 134.176,8.092 C133.802667,8.29733333 133.485333,8.51666667 133.224,8.75 C132.962667,8.98333333 132.748,9.212 132.58,9.436 L132.58,9.436 L132.496,9.436 L132.496,-4.61852778e-14 L129.136,-4.61852778e-14 L129.136,21.168 L132.328,21.168 L132.328,19.152 L132.384,19.152 C132.869333,19.9733333 133.522667,20.5706667 134.344,20.944 C135.165333,21.3173333 136.052,21.504 137.004,21.504 Z M136.332,18.48 C135.716,18.48 135.165333,18.368 134.68,18.144 C134.194667,17.92 133.779333,17.6213333 133.434,17.248 C133.088667,16.8746667 132.827333,16.4453333 132.65,15.96 C132.472667,15.4746667 132.384,14.9706667 132.384,14.448 C132.384,13.9253333 132.472667,13.4213333 132.65,12.936 C132.827333,12.4506667 133.088667,12.0213333 133.434,11.648 C133.779333,11.2746667 134.194667,10.976 134.68,10.752 C135.165333,10.528 135.716,10.416 136.332,10.416 C136.948,10.416 137.498667,10.528 137.984,10.752 C138.469333,10.976 138.884667,11.2746667 139.23,11.648 C139.575333,12.0213333 139.836667,12.4506667 140.014,12.936 C140.191333,13.4213333 140.28,13.9253333 140.28,14.448 C140.28,14.9706667 140.191333,15.4746667 140.014,15.96 C139.836667,16.4453333 139.575333,16.8746667 139.23,17.248 C138.884667,17.6213333 138.469333,17.92 137.984,18.144 C137.498667,18.368 136.948,18.48 136.332,18.48 Z M150.192,21.168 L150.192,-4.61852778e-14 L146.832,-4.61852778e-14 L146.832,21.168 L150.192,21.168 Z M160.692,21.504 C161.756,21.504 162.773333,21.2986667 163.744,20.888 C164.714667,20.4773333 165.592,19.7866667 166.376,18.816 L166.376,18.816 L163.968,16.996 C163.538667,17.5186667 163.039333,17.9526667 162.47,18.298 C161.900667,18.6433333 161.196,18.816 160.356,18.816 C159.404,18.816 158.592,18.536 157.92,17.976 C157.248,17.416 156.856,16.632 156.744,15.624 L156.744,15.624 L166.992,15.624 L166.992,14.7 C166.992,13.524 166.838,12.4833333 166.53,11.578 C166.222,10.6726667 165.792667,9.912 165.242,9.296 C164.691333,8.68 164.028667,8.20866667 163.254,7.882 C162.479333,7.55533333 161.625333,7.392 160.692,7.392 C159.684,7.392 158.732,7.56 157.836,7.896 C156.94,8.232 156.165333,8.708 155.512,9.324 C154.858667,9.94 154.340667,10.682 153.958,11.55 C153.575333,12.418 153.384,13.384 153.384,14.448 C153.384,15.512 153.575333,16.478 153.958,17.346 C154.340667,18.214 154.858667,18.956 155.512,19.572 C156.165333,20.188 156.94,20.664 157.836,21 C158.732,21.336 159.684,21.504 160.692,21.504 Z M163.632,13.104 L156.744,13.104 C156.874667,12.1333333 157.234,11.3586667 157.822,10.78 C158.41,10.2013333 159.208,9.912 160.216,9.912 C161.28,9.912 162.110667,10.1966667 162.708,10.766 C163.305333,11.3353333 163.613333,12.1146667 163.632,13.104 L163.632,13.104 Z" id="Bubble" fill="#4E71A2"></path>
                            </g>
                        </g>
                    </g>
                </g>
            </g>
        </g>
    </g>
</svg>