<?xml version="1.0" encoding="UTF-8"?>
<svg width="220px" height="49px" viewBox="0 0 220 49" version="1.1" xmlns="http://www.w3.org/2000/svg" xmlns:xlink="http://www.w3.org/1999/xlink">
    <!-- Generator: Sketch 63.1 (92452) - https://sketch.com -->
    <title>logotype</title>
    <desc>Created with Sketch.</desc>
    <g id="Page-1" stroke="none" stroke-width="1" fill="none" fill-rule="evenodd">
        <g id="V2" transform="translate(-109.000000, -2296.000000)" fill="#F38270" fill-rule="nonzero">
            <g id="freebies" transform="translate(64.000000, 2067.000000)">
                <g id="logos" transform="translate(0.000000, 203.000000)">
                    <g id="sweetalert">
                        <path d="M238.403272,57.4136768 C238.614428,56.5240715 238.859069,55.5981912 239.137193,54.6360329 C239.886446,52.0440199 240.848311,49.431796 242.022818,46.7992829 C242.630321,45.3817757 243.318814,43.9845398 244.088318,42.6075329 C244.857822,41.230526 245.667814,39.8940394 246.518318,38.5980329 C245.627312,38.6790333 244.756572,38.7600325 243.906068,38.8410329 C243.055564,38.9220333 242.225322,39.0637818 241.415318,39.2662829 C241.091315,39.3472833 240.858443,39.2662841 240.716693,39.0232829 C240.574941,38.7802817 240.544566,38.4967845 240.625568,38.1727829 C240.706568,37.8487813 240.888816,37.5349094 241.172318,37.2311579 C241.455819,36.9274064 241.840565,36.755283 242.326568,36.7147829 C243.258072,36.6337825 244.209812,36.5629081 245.181818,36.5021579 C246.153822,36.4414076 247.125812,36.3705333 248.097818,36.2895329 C249.191323,34.8315256 250.305061,33.5051638 251.439068,32.3104079 C252.573073,31.1156519 253.676687,30.1537865 254.749943,29.4247829 C255.823198,28.6957792 256.835687,28.2401588 257.787443,28.0579079 C258.739197,27.8756569 259.579564,28.0477802 260.308568,28.5742829 C260.835071,28.9387846 260.895819,29.7589015 260.490818,31.0346579 C260.085815,32.3104142 259.336573,33.8797736 258.243068,35.7427829 L263.953568,35.4997829 C264.480071,35.4592826 264.743318,35.6820304 264.743318,36.1680329 C264.743318,36.6540353 264.571194,37.1704052 264.226943,37.7171579 C263.88269,38.2639106 263.416946,38.7397808 262.829693,39.1447829 C262.24244,39.5497849 261.645071,39.6712837 261.037568,39.5092829 C260.592065,39.4282825 259.964322,39.3169085 259.154318,39.1751579 C258.344314,39.0334072 257.392573,38.9017834 256.299068,38.7802829 C254.63856,41.210295 252.654079,43.812394 250.345568,46.5866579 C248.037056,49.3609218 245.546331,52.0440199 242.873318,54.6360329 C242.549315,55.8105387 242.346818,56.8736531 242.265818,57.8254079 C242.184816,58.7771626 242.184816,59.5871545 242.265818,60.2554079 C242.346818,60.9236612 242.498691,61.440031 242.721443,61.8045329 C242.944194,62.1690346 243.177066,62.3715326 243.420068,62.4120329 C243.703569,62.452533 244.159189,62.3310342 244.786943,62.0475329 C245.414696,61.7640314 246.093064,61.3792853 246.822068,60.8932829 C247.551071,60.4072804 248.269939,59.850411 248.978693,59.2226579 C249.687446,58.5949048 250.284815,57.9772858 250.770818,57.3697829 C251.256819,56.7622798 251.71244,56.347159 252.137693,56.1244079 C252.562944,55.9016568 252.907191,55.8307825 253.170443,55.9117829 C253.433694,55.9927833 253.565318,56.215531 253.565318,56.5800329 C253.565318,56.9445346 253.362819,57.4507796 252.957818,58.0987829 C252.552815,58.7467861 251.813698,59.6479021 250.740443,60.8021579 C249.667187,61.9564137 248.462325,63.1106521 247.125818,64.2649079 C245.789311,65.4191637 244.4427,66.4215286 243.085943,67.2720329 C241.729186,68.1225371 240.564822,68.5477829 239.592818,68.5477829 C238.620812,68.5477829 237.982944,67.9099142 237.679193,66.6341579 C237.38106,65.3819998 237.356037,63.7494623 237.604125,61.736498 C236.774928,62.6096762 235.87858,63.4828496 234.915068,64.3560329 C233.619061,65.5305387 232.2927,66.5531536 230.935943,67.4239079 C229.579186,68.2946622 228.394572,68.7300329 227.382068,68.7300329 C226.450562,68.7300329 225.822819,68.1832883 225.498818,67.0897829 C225.174815,65.9962773 225.255815,64.5382919 225.741818,62.7157829 C226.227819,60.8932737 227.149186,58.7872948 228.505943,56.3977829 C229.8627,54.0082709 231.735806,51.497296 234.125318,48.8647829 C233.598815,48.9457833 233.072321,48.966033 232.545818,48.9255329 C232.019315,48.8850326 231.472571,48.8040334 230.905568,48.6825329 C230.217064,50.0190395 229.366572,51.5377744 228.354068,53.2387829 C227.341562,54.9397914 226.227823,56.5597752 225.012818,58.0987829 C224.769816,58.544285 224.354696,59.2024036 223.767443,60.0731579 C223.18019,60.9439122 222.471447,61.8754029 221.641193,62.8676579 C220.810939,63.8599129 219.859198,64.8217781 218.785943,65.7532829 C217.712687,66.6847875 216.558448,67.4542798 215.323193,68.0617829 C214.087936,68.6692858 212.79195,69.0337822 211.435193,69.1552829 C210.078436,69.2767834 208.671075,68.9932862 207.213068,68.3047829 C206.038561,67.73778 205.208319,66.8366641 204.722318,65.6014079 C204.255106,64.4139116 204.049899,63.0673618 204.106694,61.5617209 C203.211445,62.4627837 202.242159,63.3638405 201.198818,64.2649079 C199.862311,65.4191637 198.5157,66.4215286 197.158943,67.2720329 C195.802186,68.1225371 194.637822,68.5477829 193.665818,68.5477829 C192.693812,68.5477829 192.055944,67.9099142 191.752193,66.6341579 C191.45122,65.3700739 191.428586,63.7183303 191.684288,61.6788781 C191.240905,62.1500512 190.767415,62.6374349 190.263818,63.1410329 C189.210812,64.1940381 188.076823,65.2267777 186.861818,66.2392829 C185.646811,67.2517879 184.441948,68.1022794 183.247193,68.7907829 C182.052436,69.4792862 180.908323,69.9450317 179.814818,70.1880329 C178.721312,70.4310341 177.789822,70.2690357 177.020318,69.7020329 C176.453315,69.2970308 176.139443,68.7097867 176.078693,67.9402829 C176.017941,67.170779 176.15969,66.2595381 176.503943,65.2065329 C176.848194,64.1535276 177.334189,62.9891642 177.961943,61.7134079 C178.589696,60.4376515 179.328814,59.0910399 180.179318,57.6735329 C177.506304,57.9975345 174.802956,58.3215313 172.069193,58.6455329 C169.335429,58.9695345 166.73333,59.2530317 164.262818,59.4960329 C163.128811,61.0350406 162.156822,62.5436504 161.346818,64.0219079 C160.536814,65.5001653 159.919194,66.8771515 159.493943,68.1529079 C159.06869,69.4286642 158.856068,70.5829027 158.856068,71.6156579 C158.856068,72.648413 159.099065,73.5090294 159.585068,74.1975329 C156.750053,74.8455361 154.664325,74.946785 153.327818,74.5012829 C151.991311,74.0557806 151.282568,73.1850394 151.201568,71.8890329 C151.120566,70.5930264 151.626812,68.9426679 152.720318,66.9379079 C153.813823,64.9331479 155.373057,62.6955452 157.398068,60.2250329 L150.776318,60.8325329 C149.982665,60.911898 149.558394,60.6899351 149.503491,60.1666373 C149.322404,60.3691867 149.129056,60.5810268 148.923443,60.8021579 C147.850187,61.9564137 146.645325,63.1106521 145.308818,64.2649079 C143.972311,65.4191637 142.6257,66.4215286 141.268943,67.2720329 C139.912186,68.1225371 138.747822,68.5477829 137.775818,68.5477829 C136.803812,68.5477829 136.165944,67.9099142 135.862193,66.6341579 C135.605331,65.5553384 135.551199,64.1941637 135.699796,62.5506029 C135.613575,62.6555895 135.525956,62.7612745 135.436943,62.8676579 C134.606689,63.8599129 133.654948,64.8217781 132.581693,65.7532829 C131.508437,66.6847875 130.354198,67.4542798 129.118943,68.0617829 C127.883686,68.6692858 126.5877,69.0337822 125.230942,69.1552829 C123.874186,69.2767834 122.466825,68.9932862 121.008817,68.3047829 C119.834311,67.73778 119.00407,66.8366641 118.518067,65.6014079 C118.131963,64.6200602 117.924793,63.5300888 117.896553,62.3314726 C117.753381,62.508185 117.606178,62.6869133 117.454942,62.8676579 C116.624688,63.8599129 115.672948,64.8217781 114.599692,65.7532829 C113.526437,66.6847875 112.372199,67.4542798 111.136942,68.0617829 C109.901686,68.6692858 108.605699,69.0337822 107.248942,69.1552829 C105.892186,69.2767834 104.484825,68.9932862 103.026817,68.3047829 C101.852311,67.73778 101.02207,66.8366641 100.536067,65.6014079 C100.050065,64.3661517 99.847567,62.9587907 99.9285674,61.3792829 C99.931603,61.3200871 99.9349942,61.2607635 99.938741,61.201312 C99.6300959,61.4196255 99.3128302,61.6206986 98.9869424,61.8045329 C98.1971885,62.250035 97.3973214,62.5436572 96.5873174,62.6854079 C95.7773133,62.8271585 95.0483206,62.7360345 94.4003174,62.4120329 C93.9548151,62.2095318 93.6004437,61.8754102 93.3371924,61.4096579 C93.073941,60.9439056 92.8613182,60.4275357 92.6993174,59.8605329 C91.7273125,61.1160391 90.7451974,62.2702776 89.7529424,63.3232829 C88.7606874,64.3762881 87.808947,65.287529 86.8976924,66.0570329 C85.9864378,66.8265367 85.1258214,67.393531 84.3158174,67.7580329 C83.5058133,68.1225346 82.7768206,68.2237837 82.1288174,68.0617829 C81.5213143,67.8997821 81.0454442,67.4846612 80.7011924,66.8164079 C80.3569406,66.1481545 80.1443178,65.2875381 80.0633174,64.2345329 C78.7673109,65.5305394 77.5320732,66.5430292 76.3575674,67.2720329 C75.1830615,68.0010365 74.1503219,68.2642838 73.2593174,68.0617829 C72.5708139,67.8592818 72.0443192,67.3125373 71.6798174,66.4215329 C71.3153155,65.5305284 71.1431923,64.4167895 71.1634424,63.0802829 C71.1836925,61.7437761 71.3659406,60.265541 71.7101924,58.6455329 C72.0544442,57.0255248 72.5708139,55.4257907 73.2593174,53.8462829 C73.3600123,53.6152768 73.4643886,53.3857873 73.5724465,53.1578142 C72.8549176,53.188091 72.1430432,53.2353305 71.4368174,53.2995329 L71.4368174,53.8462829 C71.4368174,54.0082837 71.3963178,54.1905318 71.3153174,54.3930329 C70.9913158,56.0535411 70.1813239,57.6937748 68.8853174,59.3137829 C67.5893109,60.933791 66.0402014,62.432276 64.2379424,63.8092829 C62.4356834,65.1862898 60.5018277,66.3911527 58.4363174,67.4239079 C56.370807,68.456663 54.4268264,69.2160304 52.6043174,69.7020329 C50.7818082,70.1880353 49.1921991,70.3500337 47.8354424,70.1880329 C46.4786856,70.0260321 45.6180692,69.4590377 45.2535674,68.4870329 C44.767565,67.1910264 44.9801878,65.733041 45.8914424,64.1130329 C46.802697,62.4930248 48.1999329,60.9034157 50.0831924,59.3441579 C51.9664518,57.7849 54.1939296,56.3471645 56.7656924,55.0309079 C59.3374552,53.7146513 62.0205534,52.7122862 64.8150674,52.0237829 C64.6935667,51.0112777 64.4100696,50.0392875 63.9645674,49.1077829 C63.5190651,48.1762781 62.9621958,47.3662862 62.2939424,46.6777829 C61.625689,45.9892794 60.8561967,45.4931594 59.9854424,45.1894079 C59.1146881,44.8856564 58.213572,44.8755314 57.2820674,45.1590329 C55.3785578,45.7260357 53.9104475,46.0399076 52.8776924,46.1006579 C51.8449373,46.1614081 51.2374433,45.9285354 51.0551924,45.4020329 C50.8729415,44.8755302 51.0855643,44.0452885 51.6930674,42.9112829 C52.3005704,41.7772772 53.3130602,40.2787922 54.7305674,38.4157829 C55.7430724,37.038776 57.0390594,35.631415 58.6185674,34.1936579 C60.1980752,32.7559007 61.8990582,31.4396638 63.7215674,30.2449079 C65.5440764,29.0501519 67.4070578,28.0781617 69.3105674,27.3289079 C71.2140768,26.5796541 73.0163089,26.2050329 74.7173174,26.2050329 C76.053824,26.2050329 77.0865638,26.5695292 77.8155674,27.2985329 C78.544571,28.0275365 79.0001915,28.8982777 79.1824424,29.9107829 C79.3646933,30.9232879 79.2735692,31.9762773 78.9090674,33.0697829 C78.5445655,34.1632883 77.9573214,35.0745292 77.1473174,35.8035329 C76.9448163,34.7910277 76.4993208,34.062035 75.8108174,33.6165329 C75.1223139,33.1710306 74.3325719,32.9179081 73.4415674,32.8571579 C72.5505629,32.7964076 71.6696967,32.8672818 70.7989424,33.0697829 C69.9281881,33.2722838 69.22957,33.4950317 68.7030674,33.7380329 C67.8120629,34.183535 66.8501975,34.6999049 65.8174424,35.2871579 C64.7846873,35.8744108 63.7418227,36.5224044 62.6888174,37.2311579 C61.6358121,37.9399114 60.6233223,38.679029 59.6513174,39.4485329 C58.6793125,40.2180367 57.828821,40.9672792 57.0998174,41.6962829 C56.1683127,42.6277875 55.6823175,43.1542822 55.6418174,43.2757829 C55.6013171,43.3972834 56.1075621,43.2960345 57.1605674,42.9720329 C61.089087,41.7975269 64.288555,41.9595253 66.7590674,43.4580329 C69.2295797,44.9565403 70.7483146,47.4877651 71.3153174,51.0517829 C72.044321,50.9707825 72.7733138,50.9302829 73.5023174,50.9302829 C73.9223717,50.9302829 74.3424223,50.937006 74.7624735,50.9504524 C75.0983379,50.3973438 75.4579104,49.8539965 75.8411924,49.3204079 C76.8739475,47.8826507 78.0585606,46.6777877 79.3950674,45.7057829 C80.2860719,45.0577796 81.0960638,44.622409 81.8250674,44.3996579 C82.554071,44.1769068 83.1109405,44.1060325 83.4956924,44.1870329 C83.8804443,44.2680333 84.0525675,44.4806561 84.0120674,44.8249079 C83.9715671,45.1691596 83.6273206,45.6045302 82.9793174,46.1310329 C81.4403097,47.3460389 80.1746974,48.8040244 79.1824424,50.5050329 C78.1901874,52.2060414 77.4611947,53.83615 76.9954424,55.3954079 C76.5296901,56.9546657 76.3170671,58.3012772 76.3575674,59.4352829 C76.3980675,60.5692885 76.661315,61.2172821 77.1473174,61.3792829 C77.9168212,61.5817838 78.9900605,60.9945398 80.3670674,59.6175329 C80.5695683,58.5240273 80.8733154,57.3799138 81.2783174,56.1851579 C81.6833194,54.9904019 82.1895643,53.8159137 82.7970674,52.6616579 C83.4045704,51.5074021 84.0930635,50.413913 84.8625674,49.3811579 C85.6320712,48.3484027 86.5028125,47.4472867 87.4748174,46.6777829 C88.4468223,45.908279 89.2871889,45.3514096 89.9959424,45.0071579 C90.7046959,44.6629061 91.2716902,44.5110326 91.6969424,44.5515329 C92.1221946,44.592033 92.3955667,44.794531 92.5170674,45.1590329 C92.6385679,45.5235346 92.5778186,46.0095298 92.3348174,46.6170329 C91.6463139,48.2775411 90.7350731,49.9076499 89.6010674,51.5074079 C88.4670617,53.1071658 87.0495759,55.0612713 85.3485674,57.3697829 C85.267567,58.3012875 85.267567,59.1720288 85.3485674,59.9820329 C85.4295678,60.7920369 85.6320658,61.2577822 85.9560674,61.3792829 C86.4420698,61.5412837 87.1001882,61.3286608 87.9304424,60.7414079 C88.7606966,60.1541549 89.6415627,59.2530389 90.5730674,58.0380329 C91.504572,56.8230268 92.4259378,55.2941671 93.3371924,53.4514079 C94.248447,51.6086487 95.0483139,49.4925448 95.7368174,47.1030329 C95.9393183,46.333529 96.3949389,45.726035 97.1036924,45.2805329 C97.8124459,44.8350306 98.5414386,44.5312837 99.2906924,44.3692829 C100.039946,44.2072821 100.68794,44.1769073 101.234692,44.2781579 C101.781445,44.3794084 102.014318,44.5515317 101.933317,44.7945329 C101.406815,46.0095389 100.708197,47.4168999 99.8374424,49.0166579 C98.9666881,50.6164158 97.9845728,52.2870241 96.8910674,54.0285329 C96.5265655,54.7575365 96.2936929,55.5270288 96.1924424,56.3370329 C96.0911919,57.1470369 96.3443143,57.8152802 96.9518174,58.3417829 C97.4378198,58.7467849 98.0655635,58.8480338 98.8350674,58.6455329 C99.5705139,58.4519943 100.157974,58.0549916 100.597463,57.4545135 C100.69768,57.0960852 100.808839,56.7337169 100.930942,56.3674079 C101.518195,54.6056491 102.277563,52.9350407 103.209067,51.3555329 C104.100072,49.8570253 105.132811,48.4901641 106.307317,47.2549079 C107.481823,46.0196517 108.706936,45.0577862 109.982692,44.3692829 C111.258449,43.6807794 112.544311,43.316283 113.840317,43.2757829 C115.136324,43.2352826 116.371561,43.6402786 117.546067,44.4907829 C118.396572,45.0982858 119.004066,45.8779031 119.368567,46.8296579 C119.733069,47.7814126 119.783694,48.7939025 119.520442,49.8671579 C119.257191,50.9404133 118.649697,52.0035276 117.697942,53.0565329 C116.746188,54.1095381 115.399576,55.0612786 113.658067,55.9117829 C112.888563,56.2762846 112.098821,56.5294072 111.288817,56.6711579 C110.478813,56.8129085 109.709321,56.8939077 108.980317,56.9141579 C108.251314,56.934408 107.572946,56.9040333 106.945192,56.8230329 C106.317439,56.7420325 105.78082,56.6610333 105.335317,56.5800329 C105.213817,57.2280361 105.092318,57.9266541 104.970817,58.6759079 C104.849317,59.4251617 104.788567,60.1440294 104.788567,60.8325329 C104.788567,61.5210362 104.879691,62.1386552 105.061942,62.6854079 C105.244193,63.2321606 105.578315,63.6270317 106.064317,63.8700329 C107.117323,64.4370357 108.291811,64.5281598 109.587817,64.1434079 C110.883824,63.758656 112.129186,63.1714118 113.323942,62.3816579 C114.518698,61.591904 115.602063,60.7110377 116.574067,59.7390329 C117.498229,58.8148715 118.166101,58.0554719 118.577703,57.4608138 C118.678377,57.1003318 118.790124,56.7358632 118.912942,56.3674079 C119.500195,54.6056491 120.259563,52.9350407 121.191067,51.3555329 C122.082072,49.8570253 123.114811,48.4901641 124.289317,47.2549079 C125.463823,46.0196517 126.688936,45.0577862 127.964693,44.3692829 C129.240448,43.6807794 130.526311,43.316283 131.822318,43.2757829 C133.118323,43.2352826 134.353561,43.6402786 135.528068,44.4907829 C136.378572,45.0982858 136.986065,45.8779031 137.350568,46.8296579 C137.715069,47.7814126 137.765694,48.7939025 137.502443,49.8671579 C137.239191,50.9404133 136.631697,52.0035276 135.679943,53.0565329 C134.728187,54.1095381 133.381576,55.0612786 131.640068,55.9117829 C130.870564,56.2762846 130.080822,56.5294072 129.270818,56.6711579 C128.460814,56.8129085 127.691321,56.8939077 126.962318,56.9141579 C126.233314,56.934408 125.554946,56.9040333 124.927192,56.8230329 C124.299439,56.7420325 123.76282,56.6610333 123.317317,56.5800329 C123.195817,57.2280361 123.074318,57.9266541 122.952817,58.6759079 C122.831317,59.4251617 122.770567,60.1440294 122.770567,60.8325329 C122.770567,61.5210362 122.861691,62.1386552 123.043942,62.6854079 C123.226193,63.2321606 123.560315,63.6270317 124.046317,63.8700329 C125.099323,64.4370357 126.273811,64.5281598 127.569818,64.1434079 C128.865823,63.758656 130.111186,63.1714118 131.305943,62.3816579 C132.500698,61.591904 133.584062,60.7110377 134.556068,59.7390329 C135.498026,58.7970742 136.17373,58.0262842 136.583197,57.4266418 C136.795052,56.5330681 137.040717,55.6028663 137.320193,54.6360329 C138.069446,52.0440199 139.031311,49.431796 140.205818,46.7992829 C140.813321,45.3817757 141.501814,43.9845398 142.271318,42.6075329 C143.040822,41.230526 143.850814,39.8940394 144.701318,38.5980329 C143.810312,38.6790333 142.939572,38.7600325 142.089068,38.8410329 C141.238564,38.9220333 140.408322,39.0637818 139.598318,39.2662829 C139.274315,39.3472833 139.041443,39.2662841 138.899693,39.0232829 C138.757941,38.7802817 138.727566,38.4967845 138.808568,38.1727829 C138.889568,37.8487813 139.071816,37.5349094 139.355318,37.2311579 C139.638819,36.9274064 140.023565,36.755283 140.509568,36.7147829 C141.441072,36.6337825 142.392812,36.5629081 143.364818,36.5021579 C144.336822,36.4414076 145.308812,36.3705333 146.280818,36.2895329 C147.374323,34.8315256 148.488061,33.5051638 149.622068,32.3104079 C150.756073,31.1156519 151.859687,30.1537865 152.932943,29.4247829 C154.006198,28.6957792 155.018687,28.2401588 155.970443,28.0579079 C156.922197,27.8756569 157.762564,28.0477802 158.491568,28.5742829 C159.018071,28.9387846 159.078819,29.7589015 158.673818,31.0346579 C158.268815,32.3104142 157.519573,33.8797736 156.426068,35.7427829 L162.136568,35.4997829 C162.663071,35.4592826 162.926318,35.6820304 162.926318,36.1680329 C162.926318,36.6540353 162.754194,37.1704052 162.409943,37.7171579 C162.06569,38.2639106 161.599946,38.7397808 161.012693,39.1447829 C160.42544,39.5497849 159.828071,39.6712837 159.220568,39.5092829 C158.775065,39.4282825 158.147322,39.3169085 157.337318,39.1751579 C156.527314,39.0334072 155.575573,38.9017834 154.482068,38.7802829 C152.82156,41.210295 150.837079,43.812394 148.528568,46.5866579 C146.220056,49.3609218 143.729331,52.0440199 141.056318,54.6360329 C140.732315,55.8105387 140.529818,56.8736531 140.448818,57.8254079 C140.367816,58.7771626 140.367816,59.5871545 140.448818,60.2554079 C140.529818,60.9236612 140.681691,61.440031 140.904443,61.8045329 C141.127194,62.1690346 141.360066,62.3715326 141.603068,62.4120329 C141.886569,62.452533 142.342189,62.3310342 142.969943,62.0475329 C143.597696,61.7640314 144.276064,61.3792853 145.005068,60.8932829 C145.734071,60.4072804 146.452939,59.850411 147.161693,59.2226579 C147.870446,58.5949048 148.467815,57.9772858 148.953818,57.3697829 C149.439819,56.7622798 149.89544,56.347159 150.320693,56.1244079 C150.745944,55.9016568 151.090191,55.8307825 151.353443,55.9117829 C151.616694,55.9927833 151.748318,56.215531 151.748318,56.5800329 C151.748318,56.6281809 151.744784,56.6788021 151.737718,56.7318965 C151.867978,56.6384705 152.003136,56.5473492 152.143193,56.4585329 C152.973447,55.9320302 153.874562,55.7295322 154.846568,55.8510329 C155.413571,55.9320333 156.213437,56.0029076 157.246193,56.0636579 C158.278948,56.1244081 159.483811,56.1750326 160.860818,56.2155329 L164.748818,52.2667829 C167.21933,49.8772709 169.791054,47.4979198 172.464068,45.1286579 C175.137081,42.759396 177.789804,40.5116685 180.422318,38.3854079 C183.05483,36.2591472 185.606306,34.3354165 188.076818,32.6141579 C190.54733,30.8928992 192.795057,29.4855383 194.820068,28.3920329 C196.845077,27.2985273 198.576435,26.5695346 200.014193,26.2050329 C201.45195,25.840531 202.474564,25.9620298 203.082068,26.5695329 C203.608571,27.0960354 203.679444,27.9870265 203.294693,29.2425329 C202.90994,30.4980391 202.221447,31.9661495 201.229193,33.6469079 C200.236937,35.3276662 199.0422,37.1602729 197.644943,39.1447829 C196.247686,41.1292927 194.80995,43.1441476 193.331693,45.1894079 C191.853435,47.2346681 190.4157,49.2495229 189.018443,51.2340329 C187.621186,53.2185427 186.446697,55.0308996 185.494943,56.6711579 C184.543187,58.3114161 183.895194,59.7187769 183.550943,60.8932829 C183.20669,62.0677887 183.338314,62.8777806 183.945818,63.3232829 C184.188819,63.5257838 184.664689,63.4650345 185.373443,63.1410329 C186.082196,62.8170313 186.871937,62.3512858 187.742693,61.7437829 C188.613447,61.1362798 189.484187,60.4376618 190.354943,59.6479079 C191.216337,58.8666424 191.929094,58.1151137 192.493232,57.3932997 C192.707996,56.5099351 192.957107,55.5908472 193.240568,54.6360329 C194.010072,52.0440199 194.982061,49.431796 196.156568,46.7992829 C196.926072,45.017274 197.796812,43.2656665 198.768818,41.5444079 C199.740822,39.8231492 200.763437,38.1930406 201.836693,36.6540329 C202.909948,35.1150252 204.003437,33.7279141 205.117193,32.4926579 C206.230948,31.2574017 207.314312,30.2651617 208.367318,29.5159079 C209.420323,28.7666541 210.422687,28.2907838 211.374443,28.0882829 C212.326197,27.8857818 213.186814,28.0477802 213.956318,28.5742829 C214.968822,29.3032865 215.161196,30.5992736 214.533443,32.4622829 C213.905689,34.3252922 212.731201,36.5122703 211.009943,39.0232829 C209.288683,41.5342954 207.15233,44.268018 204.600818,47.2245329 C202.049304,50.1810476 199.376331,53.1172683 196.581818,56.0332829 C196.136315,58.0987931 196.055316,59.6580276 196.338818,60.7110329 C196.622319,61.7640381 197.027315,62.3310325 197.553818,62.4120329 C197.837319,62.452533 198.282814,62.3310342 198.890318,62.0475329 C199.497821,61.7640314 200.166064,61.3792853 200.895068,60.8932829 C201.624071,60.4072804 202.342939,59.850411 203.051693,59.2226579 C203.733589,58.6186926 204.312382,58.0241083 204.788088,57.4388882 C204.887162,57.0855547 204.996863,56.7283948 205.117193,56.3674079 C205.704446,54.6056491 206.463812,52.9350407 207.395318,51.3555329 C208.286322,49.8570253 209.319061,48.4901641 210.493568,47.2549079 C211.668073,46.0196517 212.893186,45.0577862 214.168943,44.3692829 C215.444698,43.6807794 216.730561,43.316283 218.026568,43.2757829 C219.322573,43.2352826 220.557811,43.6402786 221.732318,44.4907829 C222.582822,45.0982858 223.190315,45.8779031 223.554818,46.8296579 C223.919319,47.7814126 223.969944,48.7939025 223.706693,49.8671579 C223.443441,50.9404133 222.835947,52.0035276 221.884193,53.0565329 C220.932437,54.1095381 219.585826,55.0612786 217.844318,55.9117829 C217.074814,56.2762846 216.285072,56.5294072 215.475068,56.6711579 C214.665064,56.8129085 213.895571,56.8939077 213.166568,56.9141579 C212.437564,56.934408 211.759196,56.9040333 211.131443,56.8230329 C210.503689,56.7420325 209.967069,56.6610333 209.521568,56.5800329 C209.400066,57.2280361 209.278568,57.9266541 209.157068,58.6759079 C209.035566,59.4251617 208.974818,60.1440294 208.974818,60.8325329 C208.974818,61.5210362 209.065941,62.1386552 209.248193,62.6854079 C209.430443,63.2321606 209.764565,63.6270317 210.250568,63.8700329 C211.303573,64.4370357 212.478061,64.5281598 213.774068,64.1434079 C215.070073,63.758656 216.315436,63.1714118 217.510193,62.3816579 C218.704948,61.591904 219.788312,60.7110377 220.760318,59.7390329 C221.494932,59.0044174 222.067608,58.3739094 222.478352,57.8474982 C222.573461,57.6928631 222.689283,57.5336248 222.825818,57.3697829 C223.082717,56.9844325 223.339616,56.6683414 223.596514,56.421506 C224.685221,55.0468676 225.633191,53.6923439 226.440443,52.3579079 C227.432697,50.7176496 228.232564,49.2697891 228.840068,48.0142829 C227.706061,47.4067798 227.078318,46.5765381 226.956818,45.5235329 C226.835316,44.4705276 227.00744,43.4681626 227.473193,42.5164079 C227.938944,41.5646531 228.607187,40.7951608 229.477943,40.2079079 C230.348697,39.6206549 231.209314,39.4890313 232.059818,39.8130329 C232.667321,40.0155338 233.092566,40.3192808 233.335568,40.7242829 C233.578569,41.1292849 233.700068,41.5849053 233.700068,42.0911579 C233.700068,42.5974104 233.598818,43.13403 233.396318,43.7010329 C233.193816,44.2680357 232.950819,44.8147802 232.667318,45.3412829 C232.910319,45.6247842 233.22419,45.7867826 233.608943,45.8272829 C233.993694,45.867783 234.39869,45.8576581 234.823943,45.7969079 C235.249194,45.7361576 235.664315,45.6247837 236.069318,45.4627829 C236.474319,45.3007821 236.798316,45.1590334 237.041318,45.0375329 C237.162818,44.9970326 237.345066,45.0375322 237.588068,45.1590329 C237.831069,45.2805334 238.063941,45.4425318 238.286693,45.6450329 C238.509444,45.8475338 238.681566,46.0601568 238.803068,46.2829079 C238.924568,46.505659 238.924568,46.6777822 238.803068,46.7992829 C238.236065,47.3662857 237.628571,48.1054033 236.980568,49.0166579 C236.332564,49.9279125 235.694696,50.9100276 235.066943,51.9630329 C234.439189,53.0160381 233.862071,54.0791525 233.335568,55.1524079 C232.809065,56.2256633 232.363569,57.2280281 231.999068,58.1595329 C231.634565,59.0910375 231.391568,59.9010294 231.270068,60.5895329 C231.148566,61.2780362 231.209316,61.7437817 231.452318,61.9867829 C231.654818,62.1892838 232.039565,62.179159 232.606568,61.9564079 C233.173571,61.7336568 233.811439,61.3792853 234.520193,60.8932829 C235.228946,60.4072804 235.937689,59.850411 236.646443,59.2226579 C237.338133,58.6100177 237.923737,58.0070297 238.403272,57.4136768 Z M51.5108174,64.8420329 C51.834819,65.2470349 52.3613138,65.4596577 53.0903174,65.4799079 C53.819321,65.500158 54.6394378,65.3482845 55.5506924,65.0242829 C56.461947,64.7002813 57.4238123,64.224411 58.4363174,63.5966579 C59.4488224,62.9689048 60.4005629,62.1994125 61.2915674,61.2881579 C62.1825719,60.3769033 62.962189,59.3542885 63.6304424,58.2202829 C64.2986958,57.0862772 64.7745659,55.8307898 65.0580674,54.4537829 C62.4660544,55.1827865 60.2689514,56.0839025 58.4666924,57.1571579 C56.6644334,58.2304133 55.2165728,59.3036525 54.1230674,60.3769079 C53.0295619,61.4501633 52.2701946,62.4019037 51.8449424,63.2321579 C51.4196902,64.0624121 51.3083163,64.5990317 51.5108174,64.8420329 Z M114.204817,48.3180329 C113.718815,47.953531 113.101196,47.8522821 112.351942,48.0142829 C111.602689,48.1762837 110.833196,48.54078 110.043442,49.1077829 C109.253688,49.6747857 108.504446,50.4240281 107.795692,51.3555329 C107.086939,52.2870375 106.550319,53.3197772 106.185817,54.4537829 C106.590819,54.494283 107.188188,54.5145329 107.977942,54.5145329 C108.767696,54.5145329 109.749811,54.291785 110.924317,53.8462829 C112.058323,53.4007806 112.929064,52.9147854 113.536567,52.3882829 C114.14407,51.8617802 114.559191,51.3352854 114.781942,50.8087829 C115.004693,50.2822802 115.045193,49.796285 114.903442,49.3507829 C114.761692,48.9052806 114.528819,48.5610341 114.204817,48.3180329 Z M132.186818,48.3180329 C131.700815,47.953531 131.083196,47.8522821 130.333943,48.0142829 C129.584689,48.1762837 128.815197,48.54078 128.025443,49.1077829 C127.235689,49.6747857 126.486446,50.4240281 125.777692,51.3555329 C125.068939,52.2870375 124.532319,53.3197772 124.167817,54.4537829 C124.572819,54.494283 125.170188,54.5145329 125.959942,54.5145329 C126.749697,54.5145329 127.731811,54.291785 128.906318,53.8462829 C130.040323,53.4007806 130.911064,52.9147854 131.518568,52.3882829 C132.126071,51.8617802 132.541191,51.3352854 132.763943,50.8087829 C132.986694,50.2822802 133.027193,49.796285 132.885443,49.3507829 C132.743691,48.9052806 132.510819,48.5610341 132.186818,48.3180329 Z M143.425568,47.2852829 C143.223066,47.730785 143.050943,48.0952814 142.909193,48.3787829 L142.514318,49.1685329 C142.392816,49.4115341 142.281443,49.6747814 142.180193,49.9582829 C142.078941,50.2417842 141.967568,50.5860308 141.846068,50.9910329 C143.871077,48.7635217 145.71381,46.5765435 147.374318,44.4300329 C149.034826,42.2835221 150.432061,40.3395415 151.566068,38.5980329 C151.080065,38.5575326 150.573821,38.527158 150.047318,38.5069079 C149.520815,38.4866577 148.994321,38.4765329 148.467818,38.4765329 C146.685808,40.8660448 145.005076,43.8022655 143.425568,47.2852829 Z M154.117568,33.4950329 C153.064562,33.7380341 151.849575,34.5885256 150.472568,36.0465329 C150.958569,36.0060326 151.41419,35.975658 151.839443,35.9554079 C152.264694,35.9351577 152.700065,35.9250329 153.145568,35.9250329 C153.429069,35.4390304 153.641691,34.9935349 153.783443,34.5885329 C153.925193,34.1835308 154.036566,33.8190345 154.117568,33.4950329 Z M166.875068,56.2155329 C169.30508,56.1345325 171.826179,55.982659 174.438443,55.7599079 C177.050705,55.5371568 179.592056,55.1827853 182.062568,54.6967829 C183.561075,52.3477711 185.14056,49.9886698 186.801068,47.6194079 C188.461576,45.250146 189.939811,43.0732927 191.235818,41.0887829 C192.531823,39.1042729 193.524064,37.4134149 194.212568,36.0161579 C194.901071,34.6189009 195.022569,33.7177849 194.577068,33.3127829 C194.212565,32.9887813 193.584822,33.009031 192.693818,33.3735329 C191.802812,33.7380346 190.729573,34.3455286 189.474068,35.1960329 C188.218561,36.0465371 186.821325,37.1096515 185.282318,38.3854079 C183.74331,39.6611642 182.153701,41.0381504 180.513443,42.5164079 C178.873185,43.9946653 177.222826,45.5437748 175.562318,47.1637829 C173.90181,48.783791 172.302075,50.3632752 170.763068,51.9022829 C170.074564,52.6312865 169.406321,53.3501544 168.758318,54.0589079 C168.110314,54.7676614 167.482571,55.4865292 166.875068,56.2155329 Z M199.315568,47.2852829 C198.910565,48.1762873 198.546069,49.0369037 198.222068,49.8671579 C197.898065,50.6974121 197.634818,51.5175288 197.432318,52.3275329 C198.890325,50.5860241 200.358435,48.8040419 201.836693,46.9815329 C203.31495,45.1590237 204.631186,43.3972914 205.785443,41.6962829 C206.939698,39.9952744 207.871189,38.3955403 208.579943,36.8970329 C209.288696,35.3985253 209.622818,34.0620387 209.582318,32.8875329 C208.853314,33.0495337 208.073697,33.5355288 207.243443,34.3455329 C206.413189,35.1555369 205.552572,36.1984015 204.661568,37.4741579 C203.770562,38.7499142 202.869447,40.2281495 201.958193,41.9089079 C201.046937,43.5896662 200.166072,45.3817733 199.315568,47.2852829 Z M218.391068,48.3180329 C217.905065,47.953531 217.287446,47.8522821 216.538193,48.0142829 C215.788939,48.1762837 215.019447,48.54078 214.229693,49.1077829 C213.439939,49.6747857 212.690696,50.4240281 211.981943,51.3555329 C211.273189,52.2870375 210.736569,53.3197772 210.372068,54.4537829 C210.777069,54.494283 211.374439,54.5145329 212.164193,54.5145329 C212.953947,54.5145329 213.936061,54.291785 215.110568,53.8462829 C216.244573,53.4007806 217.115314,52.9147854 217.722818,52.3882829 C218.330321,51.8617802 218.745441,51.3352854 218.968193,50.8087829 C219.190944,50.2822802 219.231443,49.796285 219.089693,49.3507829 C218.947941,48.9052806 218.715069,48.5610341 218.391068,48.3180329 Z M245.242568,47.2852829 C245.040066,47.730785 244.867943,48.0952814 244.726193,48.3787829 L244.331318,49.1685329 C244.209816,49.4115341 244.098443,49.6747814 243.997193,49.9582829 C243.895941,50.2417842 243.784568,50.5860308 243.663068,50.9910329 C245.688077,48.7635217 247.53081,46.5765435 249.191318,44.4300329 C250.851826,42.2835221 252.249061,40.3395415 253.383068,38.5980329 C252.897065,38.5575326 252.390821,38.527158 251.864318,38.5069079 C251.337815,38.4866577 250.811321,38.4765329 250.284818,38.4765329 C248.502808,40.8660448 246.822076,43.8022655 245.242568,47.2852829 Z M255.934568,33.4950329 C254.881562,33.7380341 253.666575,34.5885256 252.289568,36.0465329 C252.775569,36.0060326 253.23119,35.975658 253.656443,35.9554079 C254.081694,35.9351577 254.517065,35.9250329 254.962568,35.9250329 C255.246069,35.4390304 255.458691,34.9935349 255.600443,34.5885329 C255.742193,34.1835308 255.853566,33.8190345 255.934568,33.4950329 Z" id="logotype"></path>
                    </g>
                </g>
            </g>
        </g>
    </g>
</svg>