<?xml version="1.0" encoding="UTF-8"?>
<svg width="100px" height="100px" viewBox="0 0 100 100" version="1.1" xmlns="http://www.w3.org/2000/svg" xmlns:xlink="http://www.w3.org/1999/xlink">
    <!-- Generator: Sketch 63.1 (92452) - https://sketch.com -->
    <title>course/icons/phoenix</title>
    <desc>Created with Sketch.</desc>
    <defs>
        <linearGradient x1="50%" y1="0%" x2="50%" y2="100%" id="linearGradient-1">
            <stop stop-color="#3A185B" stop-opacity="0.833701313" offset="0%"></stop>
            <stop stop-color="#5F1379" stop-opacity="0.605723505" offset="100%"></stop>
        </linearGradient>
        <linearGradient x1="59.384832%" y1="5.79567646%" x2="42.5353909%" y2="100%" id="linearGradient-2">
            <stop stop-color="#A393AE" stop-opacity="0.142663043" offset="0%"></stop>
            <stop stop-color="#6D4D81" stop-opacity="0.253623188" offset="100%"></stop>
        </linearGradient>
        <linearGradient x1="50%" y1="0%" x2="50%" y2="79.3726545%" id="linearGradient-3">
            <stop stop-color="#4B2766" stop-opacity="0.798545063" offset="0%"></stop>
            <stop stop-color="#4C3E57" stop-opacity="0" offset="100%"></stop>
        </linearGradient>
        <linearGradient x1="17.797319%" y1="17.3880045%" x2="50%" y2="73.3317307%" id="linearGradient-4">
            <stop stop-color="#000000" stop-opacity="0.100628397" offset="0%"></stop>
            <stop stop-color="#000000" stop-opacity="0.104393116" offset="100%"></stop>
        </linearGradient>
        <linearGradient x1="41.6412016%" y1="10.810375%" x2="53.2684229%" y2="71.2563441%" id="linearGradient-5">
            <stop stop-color="#EFEFEF" stop-opacity="0.249065897" offset="0%"></stop>
            <stop stop-color="#000000" stop-opacity="0.0822860054" offset="64.0975226%"></stop>
            <stop stop-color="#000000" stop-opacity="0" offset="100%"></stop>
        </linearGradient>
        <linearGradient x1="53.7176584%" y1="22.4163996%" x2="40.6323339%" y2="90.0522283%" id="linearGradient-6">
            <stop stop-color="#BEA1C7" stop-opacity="0.429121377" offset="0%"></stop>
            <stop stop-color="#FFFFFF" stop-opacity="0.0652456975" offset="100%"></stop>
        </linearGradient>
        <linearGradient x1="35.3273905%" y1="88.8809025%" x2="47.255893%" y2="82.8940216%" id="linearGradient-7">
            <stop stop-color="#000000" stop-opacity="0.0205785779" offset="0%"></stop>
            <stop stop-color="#000000" offset="100%"></stop>
        </linearGradient>
        <path d="M135.09823,261.259039 C207.194509,261.259039 261.083721,202.812659 261.083721,130.654288 C261.083721,58.4959173 202.638139,1.98951966e-13 130.54186,1.98951966e-13 C58.4455817,1.98951966e-13 -2.84217094e-14,58.4959173 -2.84217094e-14,130.654288 C-2.84217094e-14,202.812659 63.0019511,261.259039 135.09823,261.259039 Z" id="path-8"></path>
        <linearGradient x1="81.6156535%" y1="85.2025859%" x2="35.1118356%" y2="10.1459033%" id="linearGradient-10">
            <stop stop-color="#EE8C27" offset="0%"></stop>
            <stop stop-color="#F84817" offset="100%"></stop>
        </linearGradient>
    </defs>
    <g id="course/icons/phoenix" stroke="none" stroke-width="1" fill="none" fill-rule="evenodd">
        <g id="icon" transform="translate(0.000000, 2.000000)">
            <g transform="translate(171.999924, 164.008726) rotate(1.000000) translate(-171.999924, -164.008726) translate(22.999924, 0.008726)">
                <g id="drop" transform="translate(0.000000, -0.000000)">
                    <path d="M171.506541,0.0602978765 C181.248018,-0.250295353 159.368323,16.9501355 169.848847,44.6984503 C180.329371,72.446765 214.867206,87.6969283 214.867206,87.6969283 C214.867206,87.6969283 213.296941,87.28887 210.476084,86.5550508 L214.905561,89.515868 C191.491064,105.770134 178.013172,130.395453 178.013172,161.075409 C178.013172,202.619068 206.126978,237.590741 244.35153,247.971863 L244.35153,247.971863 L163.004651,256.99327 C163.004651,256.99327 214.077076,316.203663 211.10584,316.374603 C209.748915,316.452669 191.263482,325.639524 174.75445,325.927939 C159.266595,326.198513 156.035883,326.280132 154.343374,326.289194 L154.025581,326.290074 C68.9596016,326.290074 -1.17040599e-10,257.271082 -1.17040599e-10,172.13184 C-1.17040599e-10,120.813077 25.0546045,75.3511697 63.5890881,47.3308128 C64.2234188,46.790716 65.07469,46.1069546 65.8866254,45.5623547 C75.4668543,39.1364842 89.4254727,26.9096078 118.358503,14.6923701 C147.291533,2.47513228 167.082437,0.201354164 171.506541,0.0602978765 Z" fill="url(#linearGradient-1)"></path>
                    <path d="M170.605964,11.3304103 C170.605964,11.3304103 121.037149,19.6118957 103.759708,59.1704243 C86.4822669,98.7289529 95.6193537,189.986157 95.6193537,189.986157 L170.433236,46.163757 C170.433236,46.163757 167.10632,38.7579669 166.953467,29.993488 C166.800614,21.2290091 170.605964,11.3304103 170.605964,11.3304103 Z" id="Path-8" fill="url(#linearGradient-2)"></path>
                    <path d="M122.138026,13.7248282 C122.138026,13.7248282 78.6104592,26.3613807 47.2022301,79.5947665 C15.794001,132.828152 21.7555833,172.341241 25.7759488,197.909383 C31.1333083,231.980347 76.0947281,278.894692 120.827199,273.017087 C165.55967,267.139482 193.555589,230.248388 186.752076,172.103974 C180.364955,117.518142 156.583162,118.84891 126.922894,91.3855552 C97.262626,63.9222004 122.138026,13.7248282 122.138026,13.7248282 Z" id="Path-2" fill="url(#linearGradient-3)"></path>
                    <path d="M34.1710525,75.9282183 C34.1710525,75.9282183 21.6923899,90.4207738 14.1852227,106.566775 C6.67805537,122.712777 0.151650024,141.543587 0.151650024,177.534496 C0.151650024,190.693483 6.34935118,215.477075 24.2510442,231.989927 C42.1527373,248.502778 68.6943979,265.147375 109.893145,263.591725 C151.091893,262.036075 196.294178,233.080011 204.389775,212.156065 C212.485372,191.232118 193.553972,171.334897 162.071591,156.080008 C130.589211,140.825119 96.9300726,153.386838 68.1708842,136.342173 C39.4116958,119.297509 34.1710525,75.9282183 34.1710525,75.9282183 Z" id="Path-16" fill="url(#linearGradient-4)"></path>
                    <path d="M24.1982803,87.6427101 L35.5597838,195.553396 L115.741178,137.269555 L81.2118891,35.7172287 C81.2118891,35.7172287 60.6240243,48.5158535 47.2874343,60.8184094 C33.9508443,73.1209653 24.1982803,87.6427101 24.1982803,87.6427101 Z" id="Path-15" fill="url(#linearGradient-5)" opacity="0.172497736"></path>
                    <path d="M184.543883,104.412679 C184.543883,104.412679 221.117312,192.840163 216.213339,236.130009 C211.309367,279.419856 181.986409,305.300431 155.967702,309.612831 C154.325251,309.885054 152.653447,309.973141 150.965435,309.892804 C148.810139,310.219876 146.602867,310.390346 144.355814,310.390346 C120.323721,310.390346 100.84186,290.891707 100.84186,266.838916 C100.84186,250.886391 109.411417,236.937117 122.194419,229.350959 C135.857131,218.934254 152.841036,213.661428 156.990182,193.529551 C162.683897,165.903341 156.369753,136.708599 155.98578,134.981779 L155.967702,134.901239 Z" id="Combined-Shape" fill="url(#linearGradient-6)" opacity="0.735903533"></path>
                </g>
                <g id="phoenix" transform="translate(35.275692, 65.198242)">
                    <mask id="mask-9" fill="white">
                        <use xlink:href="#path-8"></use>
                    </mask>
                    <use id="Mask" fill="url(#linearGradient-7)" style="mix-blend-mode: multiply;" xlink:href="#path-8"></use>
                    <g mask="url(#mask-9)">
                        <g transform="translate(17.267442, 6.912925)">
                            <path d="M100.151163,-6.4659389e-11 C171.86598,-6.4659389e-11 230.002326,58.1864151 230.002326,129.962996 C230.002326,201.739576 171.86598,259.925991 100.151163,259.925991 C97.904076,259.925991 95.6703205,259.868864 93.4512671,259.755981 C61.071501,259.06606 30.9387296,249.237035 5.5255814,232.742339 L5.71969858,232.870448 C7.143513,232.933645 8.57554679,232.965582 10.0151163,232.965582 C62.0846509,232.965582 95.0521201,193.679989 95.0521201,142.138295 C95.0521201,90.596602 62.0846509,46.3165995 10.0151163,46.3165995 C6.75588563,46.3165995 3.53528176,46.4803039 0.361238691,46.799859 C24.1795894,18.2011366 60.0416535,-6.4659389e-11 100.151163,-6.4659389e-11 Z" id="phoenix" fill="url(#linearGradient-10)"></path>
                            <path d="M101.742012,24.0527903 C102.032977,24.8616971 102.187724,25.7097059 102.187724,26.5835641 C102.187724,32.1769075 95.8478056,36.7112082 88.0271198,36.7112082 C80.2064341,36.7112082 73.8665157,32.1769075 73.8665157,26.5835641 L73.8691193,26.7786947 Z" id="eye" fill="#FFFFFF" transform="translate(88.028422, 30.381951) rotate(-6.000000) translate(-88.028422, -30.381951) "></path>
                        </g>
                    </g>
                </g>
            </g>
        </g>
    </g>
</svg>
