<?xml version="1.0" encoding="UTF-8"?>
<svg width="42px" height="42px" viewBox="0 0 42 42" version="1.1" xmlns="http://www.w3.org/2000/svg" xmlns:xlink="http://www.w3.org/1999/xlink">
    <!-- Generator: Sketch 63.1 (92452) - https://sketch.com -->
    <title>social-dribbble</title>
    <desc>Created with Sketch.</desc>
    <g id="Page-1" stroke="none" stroke-width="1" fill="none" fill-rule="evenodd">
        <g id="V2" transform="translate(-518.000000, -536.000000)" fill="#EA4C89">
            <g id="top">
                <g id="social" transform="translate(362.000000, 533.000000)">
                    <path d="M187.108416,38.7954545 C186.930605,37.730428 185.988778,32.5521954 183.681818,26.1930229 C189.368341,25.2817825 194.295438,26.8448926 194.659091,26.964249 C193.877868,31.8796679 191.066153,36.1191163 187.108416,38.7954545 L187.108416,38.7954545 Z M177.08756,42.1363636 C172.703094,42.1363636 168.680755,40.568806 165.545455,37.9621341 C165.783728,38.1564497 165.953586,38.280859 165.953586,38.280859 C165.953586,38.280859 169.422706,30.6658227 180.17096,26.9027364 C180.212245,26.8885182 180.252351,26.8754849 180.290097,26.8636364 C182.84033,33.5236829 183.894867,39.0995909 184.159091,40.6932153 C181.98868,41.6209535 179.595329,42.1363636 177.08756,42.1363636 L177.08756,42.1363636 Z M158.863636,23.8153051 C158.863636,23.621875 158.871876,23.4331626 158.877761,23.2444503 C159.196746,23.2491681 168.133041,23.4532133 177.442465,20.6590909 C177.959198,21.6757788 178.454743,22.7101584 178.909091,23.7421791 C178.665438,23.8082284 178.433556,23.880175 178.196965,23.9591983 C168.440255,27.1213098 163.490688,35.923562 163.490688,35.923562 C163.490688,35.923562 163.496573,35.9294593 163.496573,35.9318182 C160.617467,32.7201697 158.863636,28.4729621 158.863636,23.8153051 L158.863636,23.8153051 Z M169.326413,7.77272727 C169.567893,8.08716343 172.913279,12.5436023 176.045455,18.0103986 C167.358054,20.2773446 159.814446,20.1883314 159.340909,20.1790833 C160.517684,14.6752945 164.278886,10.1125022 169.326413,7.77272727 L169.326413,7.77272727 Z M172.752273,6.81818182 C172.752273,6.82104545 172.750364,6.822 172.750364,6.822 C172.750364,6.822 172.732227,6.82581818 172.704545,6.83154545 C172.720773,6.82677273 172.736045,6.82486364 172.752273,6.81818182 L172.752273,6.81818182 Z M188.931818,10.3418686 C188.885849,10.411914 186.308014,14.3017654 179.471508,16.8409091 C176.3774,11.2034264 172.975648,6.72519409 172.704545,6.37029768 C174.073025,6.04341941 175.503977,5.86363636 176.972647,5.86363636 C181.554285,5.86363636 185.739877,7.55873367 188.931818,10.3418686 L188.931818,10.3418686 Z M194.659091,23.5227273 C194.401821,23.4667557 188.432921,22.1874066 182.368694,22.9470201 C182.24695,22.6466016 182.121761,22.3438984 181.990829,22.0411953 C181.622151,21.1822037 181.227058,20.331208 180.818182,19.4927774 C187.781706,16.6622174 190.609382,12.5922879 190.64154,12.5454545 C193.122361,15.5347909 194.614298,19.3557043 194.659091,23.5227273 L194.659091,23.5227273 Z M197.569165,19.772 C197.295952,18.4245 196.880296,17.0945 196.344379,15.8263333 C195.81897,14.5791667 195.170966,13.3798333 194.41321,12.2586667 C193.661292,11.1468333 192.796119,10.1026667 191.849216,9.153 C190.897643,8.201 189.856166,7.33883333 188.741132,6.58983333 C187.621428,5.828 186.417658,5.17933333 185.177694,4.652 C183.90854,4.11883333 182.576337,3.70116667 181.227788,3.42933333 C179.846547,3.14466667 178.422106,3 177,3 C175.577894,3 174.15462,3.14466667 172.769877,3.42933333 C171.42016,3.70116667 170.09146,4.11883333 168.822306,4.652 C167.582342,5.17933333 166.378572,5.828 165.255365,6.58983333 C164.140331,7.33883333 163.10119,8.201 162.148449,9.153 C161.19921,10.1026667 160.338708,11.1468333 159.58679,12.2586667 C158.827866,13.3798333 158.175192,14.5791667 157.649783,15.8263333 C157.115034,17.0945 156.700545,18.4245 156.42383,19.772 C156.142444,21.1521667 156,22.5755 156,23.9988333 C156,25.4245 156.142444,26.8478333 156.42383,28.2303333 C156.700545,29.579 157.115034,30.9078333 157.649783,32.1748333 C158.175192,33.4208333 158.827866,34.6236667 159.58679,35.7436667 C160.338708,36.8566667 161.19921,37.8985 162.148449,38.8505 C163.10119,39.799 164.140331,40.6611667 165.255365,41.4113333 C166.378572,42.1696667 167.582342,42.8218333 168.822306,43.348 C170.09146,43.8846667 171.42016,44.2941667 172.769877,44.5718333 C174.15462,44.8565 175.577894,45 177,45 C178.422106,45 179.846547,44.8565 181.227788,44.5718333 C182.576337,44.2941667 183.90854,43.8846667 185.177694,43.348 C186.417658,42.8218333 187.621428,42.1696667 188.741132,41.4113333 C189.856166,40.6611667 190.897643,39.799 191.849216,38.8505 C192.796119,37.8985 193.661292,36.8566667 194.41321,35.7436667 C195.170966,34.6236667 195.81897,33.4208333 196.344379,32.1748333 C196.880296,30.9078333 197.295952,29.579 197.569165,28.2303333 C197.857556,26.8478333 198,25.4245 198,23.9988333 C198,22.5755 197.857556,21.1521667 197.569165,19.772 L197.569165,19.772 Z" id="social-dribbble"></path>
                </g>
            </g>
        </g>
    </g>
</svg>