<?xml version="1.0" encoding="UTF-8"?>
<svg width="44px" height="42px" viewBox="0 0 44 42" version="1.1" xmlns="http://www.w3.org/2000/svg" xmlns:xlink="http://www.w3.org/1999/xlink">
    <!-- Generator: Sketch 63.1 (92452) - https://sketch.com -->
    <title>social-github</title>
    <desc>Created with Sketch.</desc>
    <g id="Page-1" stroke="none" stroke-width="1" fill="none" fill-rule="evenodd">
        <g id="V2" transform="translate(-619.000000, -536.000000)" fill="#C8B9CD">
            <g id="top">
                <g id="social" transform="translate(362.000000, 533.000000)">
                    <path d="M257,24.5255255 C257,34.0375375 263.303,42.1043544 272.045766,44.9500541 C273.145508,45.1471471 273.547008,44.4823363 273.547008,43.9147688 C273.547008,43.4023604 273.526855,41.704955 273.516113,39.9076577 C267.398438,41.2083123 266.105336,37.3693694 266.105336,37.3693694 C265.103648,34.8836336 263.66282,34.2214715 263.66282,34.2214715 C261.663441,32.8866366 263.8145,32.9129129 263.8145,32.9129129 C266.023352,33.0626667 267.186258,35.1306306 267.186258,35.1306306 C269.149414,38.4204204 272.337137,37.4692192 273.588602,36.9174174 C273.788578,35.53003 274.357914,34.5788288 274.985086,34.0427928 C270.10143,33.4988949 264.964,31.6516517 264.964,23.4035075 C264.964,21.0517598 265.822043,19.1336336 267.226562,17.6266787 C267.002309,17.0801321 266.244984,14.889994 267.44407,11.9273754 C267.44407,11.9273754 269.289062,11.3492973 273.494586,14.1345826 C275.248227,13.6550511 277.129484,13.4185646 278.999957,13.4106607 C280.869098,13.4185646 282.751645,13.6576577 284.508035,14.1371892 C288.705566,11.3492973 290.553223,11.929982 290.553223,11.929982 C291.756348,14.8952492 290.999023,17.0827387 290.773438,17.6266787 C292.183328,19.1336336 293.034668,21.0518018 293.034668,23.4035075 C293.034668,31.6726727 287.88916,33.4935976 282.988059,34.027027 C283.780316,34.6944444 284.481223,36.003003 284.481223,38.0105105 C284.481223,40.8877838 284.45166,43.207958 284.45166,43.9174174 C284.45166,44.4902402 284.851785,45.1602643 285.966309,44.9500541 C294.702414,42.0990991 301,34.0322823 301,24.5255255 C301,12.6381381 291.149414,3 279,3 C266.850586,3 257,12.6381381 257,24.5255255 Z" id="social-github"></path>
                </g>
            </g>
        </g>
    </g>
</svg>