<?xml version="1.0" encoding="UTF-8"?>
<svg width="38px" height="32px" viewBox="0 0 38 32" version="1.1" xmlns="http://www.w3.org/2000/svg" xmlns:xlink="http://www.w3.org/1999/xlink">
    <!-- Generator: Sketch 63.1 (92452) - https://sketch.com -->
    <title>social-twitter-bg</title>
    <desc>Created with Sketch.</desc>
    <g id="Page-1" stroke="none" stroke-width="1" fill="none" fill-rule="evenodd" fill-opacity="0.101817255">
        <g id="V2" transform="translate(-362.000000, -541.000000)" fill="#5EA9DD" stroke="#5EA9DD">
            <g id="top">
                <g id="social" transform="translate(362.000000, 533.000000)">
                    <path d="M31.4987302,10.7743607 C30.4551297,9.5332904 29.238431,8.92336855 28.0783782,8.66441861 C25.7337011,8.14103387 23.622436,9.02657109 23.5971023,9.03642722 C21.7468012,9.69896667 20.6027186,10.8607467 19.9022424,12.1183584 C18.4785613,14.6743882 18.8517756,17.6102685 18.8517756,17.6102685 C18.8517756,17.6102685 18.8787414,17.8223941 18.9573671,18.173752 C18.7569352,18.1765989 18.5532455,18.1764083 18.3478378,18.1731558 C9.58225843,18.0343558 4.12021415,12.4212886 2.46172942,10.4392717 C1.78937247,12.1889385 1.73789733,13.7265091 1.99958419,15.0196084 C2.58981815,17.93619 4.74991021,19.5984202 4.77203127,19.6153724 C4.78051165,19.6218713 5.10417666,19.8688982 5.66743898,20.1604623 C5.26679596,20.3377419 4.8653946,20.4730661 4.52037311,20.5094774 C3.71703606,20.5942563 2.50284516,20.2184148 1.7312999,19.9361886 C1.85464243,21.4711834 2.42327855,22.7091314 3.15762832,23.6891815 C4.8765842,25.9832692 7.48831124,26.8846319 7.48831124,26.8846319 C7.48831124,26.8846319 8.33797387,27.1778686 9.58167123,27.2914919 C8.72699537,27.5331372 7.727305,27.8046303 7.39681944,27.8522643 C7.02251308,27.9062144 5.74361673,27.9271153 4.79819166,27.9347878 C5.26621229,29.1254193 6.03176096,29.9958941 6.8732124,30.6319034 C8.87919782,32.1481232 11.3132376,32.3561628 11.3132376,32.3561628 C11.3132376,32.3561628 11.873567,32.4040546 12.7033079,32.3264412 C12.349817,32.6402433 11.9730571,32.9499596 11.5726763,33.2530317 C7.67828905,36.2009249 3.78555369,36.8273409 1.63558676,36.9191012 C6.58840098,40.0702004 11.3866767,39.6475075 14.7428268,39.1695006 C23.749452,37.8876108 28.5783399,31.2484086 28.5871684,31.2366112 C33.0838497,25.4087471 33.3588384,20.2170806 33.5043821,17.5039396 C33.5410167,16.8210194 33.5730072,16.2849121 33.6504918,15.9201028 C33.7600281,15.4043901 33.9831877,15.1643612 34.2290533,15.0603126 C34.7763321,14.8049089 35.6909404,13.8327111 36.4304619,12.9743777 C35.1583976,13.2955549 33.9843358,13.3327561 33.7412805,13.3364919 C33.5518831,13.3394029 32.7968132,13.3393766 31.8663848,13.2058247 C32.3674459,13.0349999 32.9049808,12.783408 33.4586732,12.4189181 C34.7412056,11.5746405 35.4330726,10.5705203 35.8028231,9.79231005 C34.222655,10.5313383 31.9634515,10.9457897 31.4987302,10.7743607 Z" id="social-twitter-bg"></path>
                </g>
            </g>
        </g>
    </g>
</svg>