<?xml version="1.0" encoding="UTF-8"?>
<svg width="38px" height="32px" viewBox="0 0 38 32" version="1.1" xmlns="http://www.w3.org/2000/svg" xmlns:xlink="http://www.w3.org/1999/xlink">
    <!-- Generator: Sketch 63.1 (92452) - https://sketch.com -->
    <title>social-twitter</title>
    <desc>Created with Sketch.</desc>
    <g id="Page-1" stroke="none" stroke-width="1" fill="none" fill-rule="evenodd">
        <g id="V2" transform="translate(-423.000000, -541.000000)" fill="#5EA9DD">
            <g id="top">
                <g id="social" transform="translate(362.000000, 533.000000)">
                    <path d="M79.3557541,17.6732184 C79.3557541,17.6732184 78.4706629,10.6990412 84.4285466,8.56569483 C84.4285466,8.56569483 89.5005151,6.43193216 92.8814153,10.4525656 C92.8814153,10.4525656 96.826417,9.79640751 97.7123323,8.56569483 C97.7123323,8.56569483 97.4696327,11.0354471 94.7335965,12.8365509 C94.7335965,12.8365509 97.2302296,12.8323875 99,11.8473177 C99,11.8473177 96.5099598,15.0227729 95.4312033,15.5178059 C94.3301959,15.9503872 96.5046031,23.089853 89.9830299,31.5420513 C89.9830299,31.5420513 85.0425066,38.35094 75.8133289,39.6645051 C72.0599321,40.1990907 66.5553074,40.6491585 61,36.3832986 C61,36.3832986 66.6348337,37.1206437 72.2709036,32.8543674 C72.2709036,32.8543674 66.4745448,32.3618325 65.1057026,27.4385655 C65.1057026,27.4385655 67.7622125,27.4385655 68.3254899,27.3573784 C68.3254899,27.3573784 62.1265547,25.2223667 62.2069052,19.1916248 C62.2069052,19.1916248 64.3001377,20.1354765 65.4678978,20.0122387 C65.4674857,20.0118223 60.2344043,16.0315743 63.3338719,9.46791214 C63.3338719,9.46791214 68.9699418,17.5087626 79.3557541,17.6732184 Z" id="social-twitter"></path>
                </g>
            </g>
        </g>
    </g>
</svg>